<svg width="78" height="78" viewBox="0 0 78 78" fill="none" xmlns="http://www.w3.org/2000/svg">
<path d="M28.1677 39C28.1677 37.5773 28.448 36.1685 28.9924 34.8541C29.5369 33.5396 30.3349 32.3453 31.3409 31.3393C32.3469 30.3333 33.5413 29.5353 34.8557 28.9908C36.1701 28.4464 37.5789 28.1661 39.0016 28.1661C40.4244 28.1661 41.8331 28.4464 43.1476 28.9908C44.462 29.5353 45.6563 30.3333 46.6623 31.3393C47.6684 32.3453 48.4664 33.5396 49.0108 34.8541C49.5553 36.1685 49.8355 37.5773 49.8355 39C49.8355 41.8733 48.6941 44.629 46.6623 46.6607C44.6306 48.6925 41.8749 49.8339 39.0016 49.8339C36.1283 49.8339 33.3727 48.6925 31.3409 46.6607C29.3092 44.629 28.1677 41.8733 28.1677 39ZM22.3112 39C22.3112 41.1916 22.7429 43.3617 23.5816 45.3865C24.4203 47.4113 25.6496 49.251 27.1993 50.8007C28.749 52.3504 30.5887 53.5797 32.6135 54.4184C34.6383 55.2571 36.8084 55.6888 39 55.6888C41.1916 55.6888 43.3617 55.2571 45.3865 54.4184C47.4113 53.5797 49.251 52.3504 50.8007 50.8007C52.3504 49.251 53.5797 47.4113 54.4184 45.3865C55.2571 43.3617 55.6888 41.1916 55.6888 39C55.6888 34.5739 53.9305 30.329 50.8007 27.1993C47.671 24.0695 43.4261 22.3112 39 22.3112C34.5739 22.3112 30.329 24.0695 27.1993 27.1993C24.0695 30.329 22.3112 34.5739 22.3112 39ZM52.4485 21.6515C52.4485 22.4228 52.6772 23.1769 53.1058 23.8182C53.5343 24.4596 54.1434 24.9594 54.856 25.2546C55.5687 25.5498 56.3528 25.627 57.1094 25.4766C57.8659 25.3261 58.5608 24.9546 59.1062 24.4092C59.6516 23.8638 60.0231 23.1689 60.1736 22.4124C60.324 21.6558 60.2468 20.8717 59.9516 20.159C59.6564 19.4464 59.1566 18.8373 58.5152 18.4088C57.8739 17.9802 57.1198 17.7515 56.3485 17.7515C55.3142 17.7515 54.3222 18.1624 53.5908 18.8938C52.8594 19.6252 52.4485 20.6172 52.4485 21.6515ZM25.87 65.455C22.7013 65.3087 20.9788 64.7822 19.8348 64.337C18.423 63.816 17.1459 62.9853 16.0972 61.906C15.018 60.8574 14.1873 59.5803 13.6662 58.1685C13.2177 57.0245 12.6913 55.302 12.5483 52.1333C12.389 48.7078 12.3597 47.6808 12.3597 39.0033C12.3597 30.3258 12.3923 29.2955 12.5483 25.8668C12.6913 22.698 13.2242 20.9788 13.6662 19.8315C14.2545 18.3138 14.9598 17.2315 16.0972 16.094C17.2347 14.9565 18.3138 14.2512 19.8348 13.663C20.9788 13.2145 22.7013 12.688 25.87 12.545C29.2955 12.3825 30.3225 12.35 39 12.35C47.6775 12.35 48.7045 12.3825 52.1333 12.5417C55.302 12.6848 57.0213 13.2178 58.1685 13.6597C59.6863 14.2448 60.7685 14.9533 61.906 16.0908C63.0435 17.2283 63.7488 18.3105 64.3403 19.8282C64.7855 20.9722 65.3152 22.6947 65.455 25.8635C65.6142 29.2922 65.6467 30.316 65.6467 38.9967C65.6467 47.6742 65.6142 48.7013 65.455 52.13C65.312 55.2988 64.7823 57.0212 64.3403 58.1652C63.8192 59.577 62.9885 60.8541 61.9092 61.9028C60.8606 62.982 59.5835 63.8127 58.1717 64.3338C57.0245 64.779 55.302 65.3088 52.1333 65.4518C48.7078 65.6077 47.6808 65.6403 39 65.6403C30.3225 65.6403 29.2955 65.6077 25.87 65.4518M25.6003 6.695C22.1422 6.85425 19.7762 7.4035 17.7125 8.20625C15.543 9.0214 13.5776 10.3002 11.9535 11.9535C10.3002 13.5776 9.0214 15.543 8.20625 17.7125C7.4035 19.7795 6.85425 22.1422 6.69825 25.6003C6.5325 29.0647 6.5 30.173 6.5 39C6.5 47.827 6.53575 48.9352 6.695 52.3997C6.85425 55.8577 7.4035 58.2205 8.20625 60.2875C9.02182 62.4558 10.3006 64.4201 11.9535 66.0432C13.5773 67.6977 15.5427 68.9776 17.7125 69.7938C19.7795 70.5965 22.1422 71.1457 25.6003 71.3018C29.068 71.461 30.173 71.5 39 71.5C47.827 71.5 48.9352 71.4642 52.3997 71.305C55.8577 71.1458 58.2205 70.5965 60.2875 69.7938C62.4561 68.9772 64.4204 67.6973 66.0432 66.0432C67.6969 64.4213 68.9768 62.4582 69.7938 60.2908C70.5965 58.2205 71.149 55.8577 71.3018 52.3997C71.461 48.932 71.4967 47.827 71.4967 39C71.4967 30.173 71.461 29.0647 71.3018 25.6003C71.1457 22.1422 70.5965 19.7762 69.7938 17.7125C68.9776 15.5427 67.6977 13.5773 66.0432 11.9535C64.421 10.301 62.4579 9.02224 60.2908 8.20625C58.2205 7.4035 55.8577 6.851 52.403 6.69825C48.9353 6.539 47.8302 6.5 39 6.5C30.1698 6.5 29.0648 6.53575 25.597 6.695" fill="black"/>
<path d="M28.1677 39C28.1677 37.5773 28.448 36.1685 28.9924 34.8541C29.5369 33.5396 30.3349 32.3453 31.3409 31.3393C32.3469 30.3333 33.5413 29.5353 34.8557 28.9908C36.1701 28.4464 37.5789 28.1661 39.0016 28.1661C40.4244 28.1661 41.8331 28.4464 43.1476 28.9908C44.462 29.5353 45.6563 30.3333 46.6623 31.3393C47.6684 32.3453 48.4664 33.5396 49.0108 34.8541C49.5553 36.1685 49.8355 37.5773 49.8355 39C49.8355 41.8733 48.6941 44.629 46.6623 46.6607C44.6306 48.6925 41.8749 49.8339 39.0016 49.8339C36.1283 49.8339 33.3727 48.6925 31.3409 46.6607C29.3092 44.629 28.1677 41.8733 28.1677 39ZM22.3112 39C22.3112 41.1916 22.7429 43.3617 23.5816 45.3865C24.4203 47.4113 25.6496 49.251 27.1993 50.8007C28.749 52.3504 30.5887 53.5797 32.6135 54.4184C34.6383 55.2571 36.8084 55.6888 39 55.6888C41.1916 55.6888 43.3617 55.2571 45.3865 54.4184C47.4113 53.5797 49.251 52.3504 50.8007 50.8007C52.3504 49.251 53.5797 47.4113 54.4184 45.3865C55.2571 43.3617 55.6888 41.1916 55.6888 39C55.6888 34.5739 53.9305 30.329 50.8007 27.1993C47.671 24.0695 43.4261 22.3112 39 22.3112C34.5739 22.3112 30.329 24.0695 27.1993 27.1993C24.0695 30.329 22.3112 34.5739 22.3112 39ZM52.4485 21.6515C52.4485 22.4228 52.6772 23.1769 53.1058 23.8182C53.5343 24.4596 54.1434 24.9594 54.856 25.2546C55.5687 25.5498 56.3528 25.627 57.1094 25.4766C57.8659 25.3261 58.5608 24.9546 59.1062 24.4092C59.6516 23.8638 60.0231 23.1689 60.1736 22.4124C60.324 21.6558 60.2468 20.8717 59.9516 20.159C59.6564 19.4464 59.1566 18.8373 58.5152 18.4088C57.8739 17.9802 57.1198 17.7515 56.3485 17.7515C55.3142 17.7515 54.3222 18.1624 53.5908 18.8938C52.8594 19.6252 52.4485 20.6172 52.4485 21.6515ZM25.87 65.455C22.7013 65.3087 20.9788 64.7822 19.8348 64.337C18.423 63.816 17.1459 62.9853 16.0972 61.906C15.018 60.8574 14.1873 59.5803 13.6662 58.1685C13.2177 57.0245 12.6913 55.302 12.5483 52.1333C12.389 48.7078 12.3597 47.6808 12.3597 39.0033C12.3597 30.3258 12.3923 29.2955 12.5483 25.8668C12.6913 22.698 13.2242 20.9788 13.6662 19.8315C14.2545 18.3138 14.9598 17.2315 16.0972 16.094C17.2347 14.9565 18.3138 14.2512 19.8348 13.663C20.9788 13.2145 22.7013 12.688 25.87 12.545C29.2955 12.3825 30.3225 12.35 39 12.35C47.6775 12.35 48.7045 12.3825 52.1333 12.5417C55.302 12.6848 57.0213 13.2178 58.1685 13.6597C59.6863 14.2448 60.7685 14.9533 61.906 16.0908C63.0435 17.2283 63.7488 18.3105 64.3403 19.8282C64.7855 20.9722 65.3152 22.6947 65.455 25.8635C65.6142 29.2922 65.6467 30.316 65.6467 38.9967C65.6467 47.6742 65.6142 48.7013 65.455 52.13C65.312 55.2988 64.7823 57.0212 64.3403 58.1652C63.8192 59.577 62.9885 60.8541 61.9092 61.9028C60.8606 62.982 59.5835 63.8127 58.1717 64.3338C57.0245 64.779 55.302 65.3088 52.1333 65.4518C48.7078 65.6077 47.6808 65.6403 39 65.6403C30.3225 65.6403 29.2955 65.6077 25.87 65.4518M25.6003 6.695C22.1422 6.85425 19.7762 7.4035 17.7125 8.20625C15.543 9.0214 13.5776 10.3002 11.9535 11.9535C10.3002 13.5776 9.0214 15.543 8.20625 17.7125C7.4035 19.7795 6.85425 22.1422 6.69825 25.6003C6.5325 29.0647 6.5 30.173 6.5 39C6.5 47.827 6.53575 48.9352 6.695 52.3997C6.85425 55.8577 7.4035 58.2205 8.20625 60.2875C9.02182 62.4558 10.3006 64.4201 11.9535 66.0432C13.5773 67.6977 15.5427 68.9776 17.7125 69.7938C19.7795 70.5965 22.1422 71.1457 25.6003 71.3018C29.068 71.461 30.173 71.5 39 71.5C47.827 71.5 48.9352 71.4642 52.3997 71.305C55.8577 71.1458 58.2205 70.5965 60.2875 69.7938C62.4561 68.9772 64.4204 67.6973 66.0432 66.0432C67.6969 64.4213 68.9768 62.4582 69.7938 60.2908C70.5965 58.2205 71.149 55.8577 71.3018 52.3997C71.461 48.932 71.4967 47.827 71.4967 39C71.4967 30.173 71.461 29.0647 71.3018 25.6003C71.1457 22.1422 70.5965 19.7762 69.7938 17.7125C68.9776 15.5427 67.6977 13.5773 66.0432 11.9535C64.421 10.301 62.4579 9.02224 60.2908 8.20625C58.2205 7.4035 55.8577 6.851 52.403 6.69825C48.9353 6.539 47.8302 6.5 39 6.5C30.1698 6.5 29.0648 6.53575 25.597 6.695" fill="white"/>
</svg>
