<svg width="72" height="78" viewBox="0 0 72 78" fill="none" xmlns="http://www.w3.org/2000/svg">
<path d="M33 58.5L18.1556 37.5375C15.7259 34.6687 14.1611 31.1687 13.6437 27.445C13.1262 23.7213 13.6773 19.9273 15.2328 16.5047C16.7883 13.0821 19.2841 10.1719 22.4297 8.11295C25.5752 6.05402 29.2409 4.9311 33 4.875C38.2107 4.92649 43.1887 7.04095 46.8436 10.7553C50.4985 14.4696 52.5325 19.481 52.5 24.6919C52.502 29.2377 50.9544 33.6483 48.1125 37.1963L33 58.5ZM33 9.75C29.0801 9.79501 25.3384 11.3938 22.5963 14.1953C19.8542 16.9968 18.336 20.772 18.375 24.6919C18.3934 28.2693 19.6804 31.7242 22.0069 34.4419L33 50.0175L44.2856 34.125C46.4308 31.4473 47.6077 28.1229 47.625 24.6919C47.664 20.772 46.1458 16.9968 43.4037 14.1953C40.6616 11.3938 36.9198 9.79501 33 9.75Z" fill="white"/>
<path d="M33 26.8125C35.6924 26.8125 37.875 24.6299 37.875 21.9375C37.875 19.2451 35.6924 17.0625 33 17.0625C30.3076 17.0625 28.125 19.2451 28.125 21.9375C28.125 24.6299 30.3076 26.8125 33 26.8125Z" fill="white"/>
<path d="M62.25 29.25H57.375V34.125H62.25V68.25H3.75V34.125H8.625V29.25H3.75C2.45707 29.25 1.21709 29.7636 0.302854 30.6779C-0.611386 31.5921 -1.125 32.8321 -1.125 34.125V68.25C-1.125 69.5429 -0.611386 70.7829 0.302854 71.6971C1.21709 72.6114 2.45707 73.125 3.75 73.125H62.25C63.5429 73.125 64.7829 72.6114 65.6971 71.6971C66.6114 70.7829 67.125 69.5429 67.125 68.25V34.125C67.125 32.8321 66.6114 31.5921 65.6971 30.6779C64.7829 29.7636 63.5429 29.25 62.25 29.25Z" fill="white"/>
</svg>
