<svg width="48" height="48" viewBox="0 0 48 48" fill="none" xmlns="http://www.w3.org/2000/svg">
<path d="M22 34H26V22H22V34ZM25.426 17.426C25.8087 17.042 26 16.5667 26 16C26 15.4333 25.808 14.9587 25.424 14.576C25.04 14.1933 24.5653 14.0013 24 14C23.4347 13.9987 22.96 14.1907 22.576 14.576C22.192 14.9613 22 15.436 22 16C22 16.564 22.192 17.0393 22.576 17.426C22.96 17.8127 23.4347 18.004 24 18C24.5653 17.996 25.0407 17.804 25.426 17.424M24 44C21.2333 44 18.6333 43.4747 16.2 42.424C13.7667 41.3733 11.65 39.9487 9.85 38.15C8.05 36.3513 6.62534 34.2347 5.576 31.8C4.52667 29.3653 4.00134 26.7653 4 24C3.99867 21.2347 4.524 18.6347 5.576 16.2C6.628 13.7653 8.05267 11.6487 9.85 9.85C11.6473 8.05133 13.764 6.62667 16.2 5.576C18.636 4.52533 21.236 4 24 4C26.764 4 29.364 4.52533 31.8 5.576C34.236 6.62667 36.3527 8.05133 38.15 9.85C39.9473 11.6487 41.3727 13.7653 42.426 16.2C43.4793 18.6347 44.004 21.2347 44 24C43.996 26.7653 43.4707 29.3653 42.424 31.8C41.3773 34.2347 39.9527 36.3513 38.15 38.15C36.3473 39.9487 34.2307 41.374 31.8 42.426C29.3693 43.478 26.7693 44.0027 24 44Z" fill="white"/>
</svg>
