<svg width="72" height="104" viewBox="0 0 72 104" fill="none" xmlns="http://www.w3.org/2000/svg">
<path d="M44.6875 0C46.6269 0 48.4869 0.770422 49.8582 2.14178C51.2296 3.51314 52 5.3731 52 7.3125V57.6875C52 59.6269 51.2296 61.4869 49.8582 62.8582C48.4869 64.2296 46.6269 65 44.6875 65H20.3125C18.3731 65 16.5131 64.2296 15.1418 62.8582C13.7704 61.4869 13 59.6269 13 57.6875V7.3125C13 5.3731 13.7704 3.51314 15.1418 2.14178C16.5131 0.770422 18.3731 0 20.3125 0H44.6875ZM44.6875 4.875H20.3125C19.666 4.875 19.046 5.13181 18.5889 5.58893C18.1318 6.04605 17.875 6.66603 17.875 7.3125V57.6875C17.875 59.033 18.967 60.125 20.3125 60.125H44.6875C45.334 60.125 45.954 59.8682 46.4111 59.4111C46.8682 58.954 47.125 58.334 47.125 57.6875V7.3125C47.125 6.66603 46.8682 6.04605 46.4111 5.58893C45.954 5.13181 45.334 4.875 44.6875 4.875ZM36.5592 50.375C37.2057 50.3741 37.826 50.6301 38.2838 51.0866C38.7415 51.5431 38.9991 52.1628 39 52.8092C39.0009 53.4557 38.7449 54.076 38.2884 54.5338C37.8319 54.9915 37.2122 55.2491 36.5658 55.25L28.4408 55.263C27.7943 55.2639 27.174 55.0079 26.7162 54.5514C26.2585 54.0949 26.0009 53.4752 26 52.8287C25.9991 52.1823 26.2551 51.562 26.7116 51.1042C27.1681 50.6465 27.7878 50.3889 28.4342 50.388L36.5592 50.375Z" fill="white"/>
</svg>
