<svg width="39" height="65" viewBox="0 0 39 65" fill="none" xmlns="http://www.w3.org/2000/svg">
<g clip-path="url(#clip0_1_4)">
<path d="M31.6875 0C33.6269 0 35.4869 0.770422 36.8582 2.14178C38.2296 3.51314 39 5.3731 39 7.3125V57.6875C39 59.6269 38.2296 61.4869 36.8582 62.8582C35.4869 64.2296 33.6269 65 31.6875 65H7.3125C5.3731 65 3.5131 64.2296 2.1418 62.8582C0.7704 61.4869 0 59.6269 0 57.6875V7.3125C0 5.3731 0.7704 3.51314 2.1418 2.14178C3.5131 0.770422 5.3731 0 7.3125 0H31.6875ZM31.6875 4.875H7.3125C6.666 4.875 6.046 5.13181 5.5889 5.58893C5.1318 6.04605 4.875 6.66603 4.875 7.3125V57.6875C4.875 59.033 5.967 60.125 7.3125 60.125H31.6875C32.334 60.125 32.954 59.8682 33.4111 59.4111C33.8682 58.954 34.125 58.334 34.125 57.6875V7.3125C34.125 6.66603 33.8682 6.04605 33.4111 5.58893C32.954 5.13181 32.334 4.875 31.6875 4.875ZM23.5592 50.375C24.2057 50.3741 24.826 50.6301 25.2838 51.0866C25.7415 51.5431 25.9991 52.1628 26 52.8092C26.0009 53.4557 25.7449 54.076 25.2884 54.5338C24.8319 54.9915 24.2122 55.2491 23.5658 55.25L15.4408 55.263C14.7943 55.2639 14.174 55.0079 13.7162 54.5514C13.2585 54.0949 13.0009 53.4752 13 52.8287C12.9991 52.1823 13.2551 51.562 13.7116 51.1042C14.1681 50.6465 14.7878 50.3889 15.4342 50.388L23.5592 50.375Z" fill="white"/>
</g>
<defs>
<clipPath id="clip0_1_4">
<rect width="39" height="65" fill="white"/>
</clipPath>
</defs>
</svg>
