<svg width="65" height="52" viewBox="0 0 65 52" fill="none" xmlns="http://www.w3.org/2000/svg">
<path d="M3.90039 0.5H61.0996C62.9685 0.5 64.5 2.03153 64.5 3.90039V44.2002C64.4999 48.2139 61.2139 51.4999 57.2002 51.5H7.7998C3.7861 51.4999 0.500106 48.2139 0.5 44.2002V3.90039C0.5 2.03153 2.03153 0.5 3.90039 0.5ZM55.5615 6.12207C55.0581 6.09268 54.5539 6.16501 54.0791 6.33496C53.6102 6.50282 53.1799 6.76261 52.8125 7.09863L32.5 24.5088L12.1875 7.0957V7.09473L12.0439 6.97852C11.7039 6.71556 11.3207 6.5123 10.9111 6.37891C10.4429 6.22646 9.94891 6.16776 9.45801 6.20605C8.96713 6.24439 8.48867 6.3793 8.0498 6.60254C7.61086 6.82582 7.22048 7.13355 6.90039 7.50781C6.5803 7.88208 6.33707 8.31591 6.18457 8.78418C6.03218 9.25223 5.97251 9.74558 6.01074 10.2363C6.04905 10.7273 6.18395 11.2066 6.40723 11.6455C6.60266 12.0297 6.86302 12.3766 7.17578 12.6719L7.3125 12.7949L29.6396 31.9375L29.6416 31.9385C30.4396 32.6156 31.4526 32.985 32.499 32.9824V32.9834L32.5 32.9824L32.502 32.9834L32.501 32.9824C33.5481 32.9841 34.5618 32.6141 35.3594 31.9355L35.3604 31.9336L57.6729 12.8037C58.068 12.4903 58.3967 12.1003 58.6377 11.6572C58.8786 11.2142 59.0278 10.7266 59.0762 10.2246C59.1245 9.72272 59.0709 9.21613 58.9189 8.73535C58.767 8.25444 58.5195 7.80885 58.1914 7.42578C57.8634 7.04283 57.4614 6.72995 57.0098 6.50586C56.558 6.28173 56.065 6.15149 55.5615 6.12207Z" fill="white" stroke="black"/>
</svg>
