<svg width="79" height="76" viewBox="0 0 79 76" fill="none" xmlns="http://www.w3.org/2000/svg">
<path d="M0.222656 19.1538C0.222656 16.2308 2.22661 15.0769 4.69301 14.9231L16.1772 15C16.8709 15 17.4875 15.4615 17.7187 16.1538C20.3393 24.6154 23.5764 29.8462 27.4302 35.7692C27.6614 36.2308 28.0468 36.4615 28.4321 36.4615C28.7404 36.4615 29.0487 36.3077 29.28 35.9231L29.5112 35.0769L29.5883 21.7692C29.5883 19.8462 28.6634 19.5385 26.5053 19.2308C25.6574 19.0769 25.1179 18.3077 25.1179 17.5385C25.1179 17.3846 25.1179 17.2308 25.195 17.0769C26.274 13.7692 29.6653 12.0769 34.444 12.0769L38.7602 12C42.3057 12 45.5428 13.5385 45.5428 18.0769V35.5385C45.8511 35.7692 46.1594 35.9231 46.5448 35.9231C47.1614 35.9231 47.9321 35.5385 48.5487 34.5385C52.5566 28.9231 57.1041 22.2308 57.7207 18.6923C57.7207 18.5385 57.7978 18.4615 57.8748 18.3077C58.7227 16.6154 60.8808 15.4615 61.8057 15.1538C61.9598 15.0769 62.191 15 62.4993 15H74.446L75.2167 15.0769C76.3729 15.0769 77.2207 15.8462 77.6061 16.5385C78.2997 17.6154 78.1456 18.7692 78.2227 19.2308V19.7692C77.0665 26.7692 69.0507 34.6154 65.6594 39.6923C65.197 40.3077 64.9657 40.8462 64.9657 41.3846C64.9657 41.8462 65.197 42.3077 65.5823 42.7692L76.8353 56.9231C77.4519 57.7692 77.7602 58.7692 77.7602 59.6154C77.7602 62.1538 75.3709 63.6154 73.0586 63.8462L71.7484 63.9231H60.0329C59.8017 63.9231 59.6476 64 59.4163 64C58.1061 64 57.027 63.3077 56.2563 62.5385C53.7899 59.5385 51.4005 56.4615 49.0112 53.4615C48.5487 52.8462 48.3946 52.7692 47.9321 52.4615C47.3926 54.6923 46.9302 57 46.3906 59.3077L46.1594 60.6154C45.774 62 44.7721 63.4615 42.9223 63.8462L41.8432 63.9231H34.2899C20.9559 63.9231 9.00922 45 0.608032 21.3846C0.376806 20.7692 0.222656 19.9231 0.222656 19.1538ZM46.5448 39.0769C44.5408 39.0769 42.3057 37.9231 42.3057 35.7692V18.0769C42.3057 16 41.3808 15.2308 38.8373 15.2308L34.444 15.3846C31.9776 15.3846 30.5902 15.7692 29.4341 16.5385C31.2068 17.3846 32.8254 18.5385 32.8254 21.7692V35.3077C32.5942 38 30.359 39.7692 28.2009 39.7692C26.7365 39.7692 25.4262 38.9231 24.6555 37.5385C21.1871 32.3077 18.2582 27.3846 15.7148 20.3077L15.0211 18.3077L4.77009 18.2308C3.38274 18.2308 3.53689 18.3077 3.53689 19C3.53689 19.4615 3.61396 20.0769 3.69104 20.4615L5.30961 24.7692C13.7108 46.4615 24.2701 60.6923 34.2899 60.6923H41.9974C43.0764 60.6923 42.9993 59.3846 43.2306 58.6154L44.695 51.8462C45.0033 51.1538 45.2345 50.5385 45.774 50C46.3906 49.3846 47.0843 49.1538 47.778 49.1538C49.2424 49.1538 50.6298 50.3077 51.5547 51.3846L58.1061 59.6923C58.6456 60.5385 59.108 60.6923 59.4163 60.6923H72.1337C73.3669 60.6923 74.446 60.3077 74.446 59.5385C74.446 59.3077 74.3689 59 74.2148 58.7692L63.0389 44.8462C62.114 43.6923 61.7286 42.5385 61.7286 41.3846C61.7286 40.1538 62.191 38.9231 62.9618 37.8462C66.1989 33 73.1357 26.0769 74.7543 20.3846L74.9855 19.3846C74.9084 19 74.9084 18.6923 74.8314 18.3077H62.7306C61.9598 18.6154 61.3432 19.0769 60.8808 19.6923L60.4183 21.1538C58.6456 26.0769 53.7899 32.8462 50.3215 37.5385C49.1653 38.6154 47.8551 39.0769 46.5448 39.0769Z" fill="#FFF1F1"/>
</svg>
