<svg width="78" height="78" viewBox="0 0 78 78" fill="none" xmlns="http://www.w3.org/2000/svg">
<path fill-rule="evenodd" clip-rule="evenodd" d="M64.1972 15.1417C64.4783 14.8204 64.6933 14.4468 64.8299 14.0423C64.9666 13.6379 65.0223 13.2104 64.9938 12.7845C64.9652 12.3585 64.8531 11.9423 64.6637 11.5597C64.4744 11.177 64.2115 10.8354 63.8901 10.5544C63.5687 10.2733 63.1952 10.0583 62.7907 9.92167C62.3862 9.785 61.9588 9.72934 61.5328 9.75786C61.1068 9.78638 60.6907 9.89852 60.308 10.0879C59.9254 10.2772 59.5838 10.5401 59.3027 10.8615L42.6952 29.8415L28.6 11.05C28.2973 10.6464 27.9047 10.3188 27.4534 10.0931C27.0022 9.86747 26.5045 9.75 26 9.75H13C12.3964 9.75 11.8048 9.91807 11.2914 10.2354C10.778 10.5527 10.363 11.0067 10.0931 11.5466C9.82319 12.0864 9.70893 12.6907 9.76313 13.2919C9.81734 13.893 10.0379 14.4671 10.4 14.95L31.3202 42.8415L13.8028 62.8615C13.5217 63.1829 13.3067 63.5565 13.17 63.9609C13.0334 64.3654 12.9777 64.7928 13.0062 65.2188C13.0348 65.6448 13.1469 66.061 13.3363 66.4436C13.5256 66.8262 13.7885 67.1678 14.1099 67.4489C14.4313 67.7299 14.8048 67.9449 15.2093 68.0816C15.6138 68.2183 16.0412 68.2739 16.4672 68.2454C16.8931 68.2169 17.3093 68.1047 17.692 67.9154C18.0746 67.726 18.4162 67.4631 18.6973 67.1418L35.3047 48.1585L49.4 66.95C49.7027 67.3536 50.0953 67.6812 50.5466 67.9069C50.9978 68.1325 51.4954 68.25 52 68.25H65C65.6036 68.25 66.1952 68.0819 66.7086 67.7646C67.222 67.4473 67.637 66.9933 67.9069 66.4534C68.1768 65.9136 68.2911 65.3093 68.2369 64.7081C68.1827 64.107 67.9621 63.5328 67.6 63.05L46.6797 35.1585L64.1972 15.1417ZM53.625 61.75L19.5 16.25H24.375L58.5 61.75H53.625Z" fill="white"/>
</svg>
