<?xml version="1.0" standalone="no"?>
<!DOCTYPE svg PUBLIC "-//W3C//DTD SVG 20010904//EN"
 "http://www.w3.org/TR/2001/REC-SVG-20010904/DTD/svg10.dtd">
<svg version="1.0" xmlns="http://www.w3.org/2000/svg"
 width="240.000000pt" height="240.000000pt" viewBox="0 0 240.000000 240.000000"
 preserveAspectRatio="xMidYMid meet">

<g transform="translate(0.000000,240.000000) scale(0.100000,-0.100000)"
fill="#000000" stroke="none">
<path d="M383 2272 c45 -70 246 -383 447 -695 201 -312 368 -566 372 -565 4 2
168 253 364 558 196 305 396 617 445 693 l88 137 -899 0 -899 0 82 -128z"/>
<path d="M383 1272 c45 -70 246 -383 447 -695 201 -312 368 -566 372 -565 4 2
168 253 364 558 196 305 396 617 445 693 l88 137 -199 0 -199 0 -248 -400
c-136 -219 -250 -399 -253 -399 -3 0 -117 180 -253 399 l-248 400 -199 0 -199
0 82 -128z"/>
</g>
</svg>
