<svg width="123" height="69" viewBox="0 0 123 69" fill="none" xmlns="http://www.w3.org/2000/svg">
<rect x="4.52753" y="2.9496" width="112.611" height="58" transform="rotate(-1 4.52753 2.9496)" stroke="white"/>
<g filter="url(#filter0_d_6_15)">
<path d="M58.7154 60.3554C58.7132 60.3549 58.7107 60.3551 58.7085 60.3545L58.7075 60.3536L58.7076 60.3546C58.7016 60.3532 58.6958 60.3524 58.6801 60.3492C58.6668 60.3465 58.6462 60.3421 58.6233 60.3365L58.6213 60.3365C58.4154 60.2861 58.2017 60.2238 57.9842 60.1543C57.9583 60.146 57.933 60.1368 57.9135 60.1301C57.8922 60.1227 57.8767 60.1171 57.8624 60.1124C57.8334 60.1031 57.7877 60.0883 57.774 60.0837L57.77 60.0818C57.7353 60.0699 57.6508 60.0422 57.5952 60.0224C57.4336 59.9652 57.2691 59.902 57.1065 59.8375L57.1036 59.8366C57.094 59.8327 57.0837 59.8285 57.0681 59.8225C57.0538 59.8171 57.0335 59.8088 57.0121 59.8001C56.9199 59.7629 56.8254 59.7224 56.7395 59.6857C56.6451 59.6459 56.5466 59.6041 56.4453 59.559C56.3426 59.5134 56.2383 59.4658 56.1391 59.4198L56.1391 59.4188C56.0847 59.3936 56.0278 59.3674 55.9766 59.3435L55.9727 59.3416C55.8557 59.2859 55.7332 59.2278 55.6082 59.1663L55.6072 59.1653C55.4657 59.0953 55.3217 59.023 55.1776 58.9492C55.1306 58.925 55.0782 58.8983 55.0268 58.8717L55.013 58.8641L55.0111 58.8632L54.383 58.5264L54.383 58.5255C54.188 58.4182 53.9899 58.3052 53.7931 58.192C53.6633 58.1176 53.531 58.0403 53.4043 57.9653L53.4043 57.9643C53.0458 57.7531 52.6812 57.532 52.3085 57.2978L52.3085 57.2968C52.2474 57.2589 52.1857 57.2194 52.1297 57.1837C51.6769 56.896 51.2142 56.5929 50.7425 56.2732L50.7415 56.2723C50.724 56.2603 50.7058 56.2482 50.6882 56.2361L49.918 55.7035C49.6643 55.5255 49.4084 55.3436 49.1506 55.1573L49.1427 55.1525L49.1318 55.1439C45.3982 52.444 41.2915 48.9131 37.5492 44.9715L37.0039 44.3979L37.7566 44.1523L80.7838 30.1199L90.9317 26.8095L91.864 26.5051L91.5619 27.4392C89.156 34.8815 82.7949 42.9292 76.2831 49.1955C73.0204 52.3351 69.7024 55.0445 66.7942 57.0225C65.3403 58.0113 63.9826 58.8219 62.7806 59.4122C61.5862 59.9989 60.5148 60.3834 59.6408 60.4936L59.5862 60.5004L59.5324 60.4955C59.3126 60.4751 59.0803 60.4341 58.8536 60.3862L58.8536 60.3852C58.818 60.378 58.7773 60.3687 58.734 60.359C58.7316 60.3586 58.7282 60.3587 58.7252 60.3582C58.7222 60.3576 58.719 60.3562 58.7154 60.3554ZM58.7154 60.3554C58.717 60.3558 58.7187 60.3559 58.7203 60.3563M58.7154 60.3554C58.7132 60.3549 58.7109 60.3541 58.7085 60.3536C58.7128 60.3546 58.7167 60.3556 58.7203 60.3563M58.7203 60.3563C58.723 60.3569 58.7259 60.3587 58.7282 60.3591C58.7295 60.3593 58.7309 60.3588 58.7321 60.359C58.7281 60.3581 58.7242 60.3572 58.7203 60.3563ZM18.4782 27.2489L27.4194 55.5893L27.5694 56.0663L27.0924 56.2162L21.442 57.9997L20.9651 58.1496L20.8151 57.6727L11.8739 29.3322L11.7229 28.8553L12.1999 28.7054L17.8503 26.9219L18.3272 26.772L18.4782 27.2489ZM12.7263 32.562L19.6587 54.5391L19.8096 55.016L19.3327 55.166L13.6823 56.9494L13.2053 57.0994L13.0544 56.6224L6.12198 34.6463L5.97105 34.1694L6.44798 34.0185L12.0984 32.236L12.5753 32.0851L12.7263 32.562ZM8.55716 43.5573L9.9354 47.9275L10.0853 48.4044L9.60938 48.5544L6.78368 49.4456L6.30675 49.5965L6.15583 49.1196L4.77759 44.7495L4.62764 44.2725L5.10457 44.1216L7.92929 43.2303L8.40624 43.0804L8.55716 43.5573ZM98.2814 15.1639L99.7188 19.5154L99.8766 19.9922L99.3988 20.148L25.1227 44.3709L24.6488 44.5247L24.493 44.0517L23.0555 39.7002L22.8978 39.2234L23.3756 39.0685L97.6517 14.8457L98.1256 14.6909L98.2814 15.1639ZM101.614 1.10649L110.935 29.3251L111.091 29.7999L110.617 29.9567L104.991 31.8149L104.516 31.9717L104.359 31.4968L95.0383 3.2792L94.8815 2.80432L95.3554 2.64759L100.982 0.788365L101.457 0.631616L101.614 1.10649ZM42.0524 3.43344C44.4344 3.3919 46.6073 3.97595 48.5438 4.89459L48.928 5.08225L48.9969 5.11719L48.9999 5.12007C54.1777 7.76573 57.6203 12.7835 58.7863 14.6753C58.898 14.4794 59.0315 14.2519 59.1857 13.9983C59.7274 13.1082 60.5312 11.8936 61.5808 10.5937C63.6729 8.00264 66.7776 5.02753 70.7734 3.64316C71.0948 3.53155 71.4212 3.43207 71.7517 3.34284L71.7565 3.34178C71.7708 3.33808 71.7853 3.33379 71.8022 3.32926C71.8181 3.325 71.8363 3.32045 71.8547 3.31565L72.2982 3.2073C72.4463 3.17378 72.5951 3.14247 72.7449 3.11356L72.9434 3.07395L72.9444 3.07394C73.2239 3.02415 73.5057 2.98536 73.7872 2.95276L73.7891 2.95175C73.8215 2.94812 73.8543 2.94382 73.8963 2.93816C73.9357 2.93286 73.983 2.92692 74.0328 2.92211C74.3867 2.88762 74.749 2.86371 75.1197 2.85723C81.7031 2.74231 87.4786 6.59463 90.5244 12.0898L90.8178 12.6199L90.2419 12.8077L28.8729 32.8213L28.4737 32.9513L28.2768 32.5816C27.4843 31.0949 26.8145 29.6062 26.3122 28.1348L26.3112 28.1348C25.497 26.1723 25.0167 24.0296 24.9773 21.7743C24.8099 12.1827 32.4223 3.60154 42.0524 3.43344ZM109.387 2.053L116.615 23.9351L116.772 24.41L116.297 24.5667L110.671 26.4249L110.196 26.5817L110.04 26.1068L102.812 4.2257L102.655 3.75083L103.13 3.59408L108.756 1.73585L109.231 1.5791L109.387 2.053ZM116.386 9.46226L117.823 13.8138L117.98 14.2887L117.505 14.4454L114.692 15.3746L114.217 15.5313L114.06 15.0564L112.623 10.7059L112.466 10.231L112.941 10.0742L115.754 9.14413L116.229 8.98738L116.386 9.46226Z" fill="black" fill-opacity="0.0666667" stroke="white"/>
</g>
<defs>
<filter id="filter0_d_6_15" x="0" y="0" width="122.612" height="69.0033" filterUnits="userSpaceOnUse" color-interpolation-filters="sRGB">
<feFlood flood-opacity="0" result="BackgroundImageFix"/>
<feColorMatrix in="SourceAlpha" type="matrix" values="0 0 0 0 0 0 0 0 0 0 0 0 0 0 0 0 0 0 127 0" result="hardAlpha"/>
<feOffset dy="4"/>
<feGaussianBlur stdDeviation="2"/>
<feComposite in2="hardAlpha" operator="out"/>
<feColorMatrix type="matrix" values="0 0 0 0 0 0 0 0 0 0 0 0 0 0 0 0 0 0 0.25 0"/>
<feBlend mode="normal" in2="BackgroundImageFix" result="effect1_dropShadow_6_15"/>
<feBlend mode="normal" in="SourceGraphic" in2="effect1_dropShadow_6_15" result="shape"/>
</filter>
</defs>
</svg>
