<svg width="121" height="66" viewBox="0 0 121 66" fill="none" xmlns="http://www.w3.org/2000/svg">
<g filter="url(#filter0_d_6_15)">
<path d="M89.3037 26.6152C86.6378 33.5183 80.5505 40.9096 74.2568 46.7578C70.9742 49.8081 67.6537 52.423 64.7656 54.3145C63.3215 55.2602 61.992 56.0215 60.834 56.5654C59.6982 57.0989 58.7561 57.407 58.0479 57.4941C57.8963 57.4745 57.7254 57.4432 57.5391 57.4004H57.5352C57.4899 57.3904 57.4527 57.3814 57.416 57.3721H57.415L57.4072 57.3701C57.4036 57.3692 57.4 57.368 57.3965 57.3672H57.3945C57.3928 57.3668 57.3912 57.3665 57.3896 57.3662C57.3767 57.3632 57.3652 57.3609 57.3584 57.3594C57.3464 57.3567 57.3411 57.3553 57.3379 57.3545H57.3389C57.1611 57.3076 56.9713 57.2493 56.7715 57.1816C56.7585 57.1773 56.7436 57.1717 56.7227 57.1641C56.7037 57.1571 56.678 57.1484 56.6523 57.1396L56.6514 57.1387C56.6271 57.1304 56.6168 57.127 56.5781 57.1133H56.5791C56.5003 57.0846 56.4752 57.0773 56.415 57.0547L56.4141 57.0537L55.9668 56.875C55.9455 56.8659 55.9254 56.8583 55.9111 56.8525C55.8955 56.8463 55.8855 56.842 55.876 56.8379H55.875C55.7943 56.8037 55.7108 56.7662 55.6201 56.7256L55.6182 56.7246L55.3447 56.6006H55.3438C55.251 56.5575 55.1554 56.5113 55.0557 56.4629L55.0547 56.4619L54.8984 56.3857H54.8994C54.7805 56.3266 54.6656 56.27 54.5488 56.21H54.5479L54.1367 55.9932L53.9912 55.915C53.9829 55.9103 53.9731 55.9045 53.9629 55.8994C53.7698 55.7939 53.5741 55.6852 53.376 55.5713V55.5703L52.8076 55.2363L52.8066 55.2354L52.4336 55.0088L52.4326 55.0078L51.9082 54.6807C51.7315 54.5688 51.5529 54.454 51.3721 54.3359L51.3691 54.334L51.2002 54.2236L51.1992 54.2227C50.7599 53.9326 50.3112 53.6276 49.8535 53.3057H49.8545C49.8457 53.2994 49.8369 53.2933 49.8281 53.2871C49.8193 53.2808 49.8106 53.2738 49.8018 53.2676H49.8008C49.3054 52.9178 48.8013 52.5512 48.2891 52.167L48.2529 52.1396L48.252 52.1387C44.8033 49.5486 41.0333 46.2121 37.5605 42.498L80.0645 29.4531L89.3037 26.6152ZM24.8682 52.8359L20.1455 54.2354L11.9844 26.7012L16.707 25.3018L24.8682 52.8359ZM17.1279 51.6494L12.4053 53.0498L6.14062 31.9141L10.8633 30.5146L17.1279 51.6494ZM7.52051 44.8701L5.63867 45.4268L4.62109 41.9922L6.50293 41.4346L7.52051 44.8701ZM97.7832 18.042L24.0518 40.6719L22.9873 37.251L96.7188 14.6211L97.7832 18.042ZM108.826 28.0479L104.124 29.5098L95.5938 2.08887L100.297 0.625977L108.826 28.0479ZM41.5107 2.13867C43.8542 2.13871 45.9809 2.78827 47.875 3.78418L47.8906 3.79297C52.8821 6.42487 56.1697 11.4473 57.2354 13.2627L57.2422 13.2744L57.25 13.2861C57.3572 13.4685 57.4397 13.6143 57.4971 13.7188L57.499 13.7227C57.5014 13.7269 57.5039 13.731 57.5059 13.7344L57.5146 13.752L57.5557 13.8271L57.5566 13.8291C57.5745 13.8616 57.5585 13.8334 57.5791 13.8711C57.5825 13.8775 57.5853 13.8828 57.5869 13.8857C57.5874 13.8867 57.5886 13.8882 57.5889 13.8887L57.5967 13.9043C57.598 13.9067 57.5989 13.9088 57.5996 13.9102L57.6006 13.9111L57.6016 13.9121L58.04 14.7891L58.4912 13.915L58.4922 13.9141C58.4926 13.9133 58.4934 13.9125 58.4941 13.9111C58.496 13.9076 58.4989 13.9012 58.5029 13.8936C58.511 13.8782 58.5234 13.855 58.54 13.8242C58.5737 13.762 58.6244 13.6686 58.6924 13.5488C58.8284 13.3091 59.0325 12.9617 59.3018 12.5361C59.8407 11.6842 60.6398 10.5208 61.6777 9.28027C63.7608 6.7906 66.7709 4.03062 70.5352 2.7998C70.8344 2.70171 71.1399 2.61436 71.4512 2.53613L71.4502 2.53516C71.4678 2.53089 71.4858 2.52821 71.501 2.52441C71.5178 2.52022 71.5327 2.51612 71.5469 2.5127H71.5479C71.8201 2.44614 72.0972 2.38812 72.3789 2.33887V2.33984L72.3809 2.33887C72.4591 2.32477 72.5034 2.31516 72.5625 2.30566C72.8183 2.26468 73.08 2.2332 73.3467 2.20703L73.3457 2.20605C73.3921 2.20167 73.4385 2.19661 73.4746 2.19238L73.5742 2.18262C73.9086 2.15591 74.2442 2.13966 74.583 2.13965C80.5424 2.13965 85.7742 5.59844 88.6455 10.5771L27.9307 29.2109C27.2674 27.8754 26.7117 26.5524 26.2939 25.2549L26.2891 25.2393L26.2822 25.2236C25.539 23.35 25.1182 21.3133 25.1182 19.1787C25.1182 10.089 32.4791 2.13867 41.5107 2.13867ZM114.6 22.7578L109.897 24.2197L103.351 3.1709L108.052 1.70801L114.6 22.7578ZM115.984 12.6592L114.11 13.2412L113.047 9.82031L114.921 9.23828L115.984 12.6592Z" fill="white" fill-opacity="0.0666667" stroke="black"/>
</g>
<defs>
<filter id="filter0_d_6_15" x="0" y="0" width="120.611" height="66" filterUnits="userSpaceOnUse" color-interpolation-filters="sRGB">
<feFlood flood-opacity="0" result="BackgroundImageFix"/>
<feColorMatrix in="SourceAlpha" type="matrix" values="0 0 0 0 0 0 0 0 0 0 0 0 0 0 0 0 0 0 127 0" result="hardAlpha"/>
<feOffset dy="4"/>
<feGaussianBlur stdDeviation="2"/>
<feComposite in2="hardAlpha" operator="out"/>
<feColorMatrix type="matrix" values="0 0 0 0 0 0 0 0 0 0 0 0 0 0 0 0 0 0 0.25 0"/>
<feBlend mode="normal" in2="BackgroundImageFix" result="effect1_dropShadow_6_15"/>
<feBlend mode="normal" in="SourceGraphic" in2="effect1_dropShadow_6_15" result="shape"/>
</filter>
</defs>
</svg>
