<svg width="114" height="60" viewBox="0 0 114 60" fill="none" xmlns="http://www.w3.org/2000/svg">
<mask id="path-1-inside-1_1_4" fill="white">
<path d="M54.0878 59.7238C54.0856 59.7233 54.0831 59.7235 54.0809 59.7229C54.0749 59.7215 54.0682 59.7208 54.0525 59.7176C54.0392 59.7149 54.0186 59.7105 53.9957 59.7049H53.9937C53.7878 59.6545 53.5741 59.5922 53.3566 59.5227C53.3307 59.5144 53.3054 59.5052 53.2859 59.4985C53.2646 59.4911 53.2491 59.4855 53.2348 59.4808C53.2058 59.4715 53.1601 59.4567 53.1464 59.4521L53.1424 59.4502C53.1077 59.4383 53.0232 59.4106 52.9676 59.3908C52.806 59.3336 52.6415 59.2704 52.4789 59.2059L52.476 59.205C52.4664 59.2011 52.4561 59.1969 52.4405 59.1909C52.4262 59.1855 52.4059 59.1772 52.3845 59.1685C52.2923 59.1313 52.1978 59.0908 52.1119 59.0541C52.0175 59.0143 51.919 58.9725 51.8177 58.9274C51.715 58.8818 51.6107 58.8342 51.5115 58.7882C51.4571 58.763 51.4002 58.7358 51.349 58.7119L51.3451 58.71C51.2281 58.6543 51.1056 58.5962 50.9806 58.5347L50.9796 58.5337C50.8381 58.4637 50.6941 58.3914 50.55 58.3176C50.503 58.2934 50.4506 58.2667 50.3992 58.2401L50.3854 58.2325L50.3835 58.2316L49.7554 57.8948C49.5604 57.7875 49.3623 57.6736 49.1655 57.5604C49.0357 57.486 48.9034 57.4087 48.7767 57.3337V57.3327C48.4182 57.1215 48.0536 56.9004 47.6809 56.6662C47.6198 56.6283 47.5581 56.5878 47.5021 56.5521C47.0493 56.2644 46.5866 55.9613 46.1149 55.6416L46.1139 55.6407C46.0964 55.6287 46.0782 55.6166 46.0606 55.6045L45.2904 55.0719C45.0367 54.8939 44.7808 54.712 44.523 54.5257L44.5151 54.5209L44.5042 54.5123C40.7706 51.8124 36.6639 48.2815 32.9216 44.3399L32.3763 43.7663L33.129 43.5207L76.1562 29.4883L86.3041 26.1779L87.2364 25.8735L86.9343 26.8076C84.5284 34.2499 78.1673 42.2976 71.6555 48.5639C68.3928 51.7035 65.0748 54.4129 62.1666 56.3909C60.7127 57.3797 59.355 58.1903 58.153 58.7806C56.9586 59.3673 55.8872 59.7518 55.0132 59.862L54.9586 59.8688L54.9048 59.8639C54.685 59.8435 54.4527 59.8025 54.226 59.7546C54.1904 59.7474 54.1497 59.7371 54.1064 59.7274C54.104 59.727 54.1006 59.7271 54.0976 59.7266C54.0946 59.726 54.0914 59.7246 54.0878 59.7238ZM54.0878 59.7238C54.0894 59.7242 54.0911 59.7243 54.0927 59.7247ZM54.0878 59.7238C54.0856 59.7233 54.0831 59.7235 54.0809 59.7229C54.0852 59.7239 54.0891 59.724 54.0927 59.7247M54.0927 59.7247C54.0954 59.7253 54.0983 59.7271 54.1006 59.7275C54.1019 59.7277 54.1033 59.7272 54.1045 59.7274C54.1005 59.7265 54.0966 59.7256 54.0927 59.7247ZM13.8506 26.6173L22.7918 54.9577L22.9418 55.4347L22.4648 55.5846L16.8144 57.3681L16.3375 57.518L16.1875 57.0411L7.24626 28.7006L7.09526 28.2237L7.57226 28.0738L13.2227 26.2903L13.6996 26.1404L13.8506 26.6173ZM8.09866 31.9304L15.0311 53.9075L15.182 54.3844L14.7051 54.5344L9.05466 56.3178L8.57766 56.4678L8.42676 55.9908L1.49434 34.0147L1.34341 33.5378L1.82034 33.3869L7.47076 31.6044L7.94766 31.4535L8.09866 31.9304ZM3.92952 42.9257L5.30776 47.2959L5.45766 47.7728L4.98174 47.9228L2.15604 48.814L1.67911 48.9649L1.52819 48.488L0.14995 44.1179L0 43.6409L0.47693 43.49L3.30165 42.5987L3.7786 42.4488L3.92952 42.9257ZM93.6538 14.5323L95.0912 18.8838L95.249 19.3606L94.7712 19.5164L20.4951 43.7393L20.0212 43.8931L19.8654 43.4201L18.4279 39.0686L18.2702 38.5918L18.748 38.4369L93.0241 14.2141L93.498 14.0593L93.6538 14.5323ZM96.9864 0.474874L106.307 28.6935L106.463 29.1683L105.989 29.3251L100.363 31.1833L99.8884 31.3401L99.7314 30.8652L90.4107 2.64758L90.2539 2.1727L90.7278 2.01597L96.3544 0.156749L96.8294 0L96.9864 0.474874ZM37.4248 2.80182C39.8068 2.76028 41.9797 3.34433 43.9162 4.26297L44.3004 4.45063L44.3693 4.48557L44.3723 4.48845C49.5501 7.13411 52.9927 12.1519 54.1587 14.0437C54.2704 13.8478 54.4039 13.6203 54.5581 13.3667C55.0998 12.4766 55.9036 11.262 56.9532 9.96208C59.0453 7.37102 62.15 4.39591 66.1458 3.01154C66.4672 2.89993 66.7936 2.80045 67.1241 2.71122L67.1289 2.71016C67.1432 2.70646 67.1577 2.70217 67.1746 2.69764C67.1905 2.69338 67.2087 2.68883 67.2271 2.68403L67.6706 2.57568C67.8187 2.54216 67.9675 2.51085 68.1173 2.48194L68.3158 2.44233C68.5953 2.39254 68.8781 2.35374 69.1596 2.32114L69.1615 2.32013C69.1939 2.3165 69.2267 2.3122 69.2687 2.30654C69.3081 2.30124 69.3554 2.2953 69.4052 2.29049C69.7591 2.256 70.1214 2.23209 70.4921 2.22561C77.0755 2.11069 82.851 5.96301 85.8968 11.4582L86.1902 11.9883L85.6143 12.1761L24.2453 32.1897L23.8461 32.3197L23.6492 31.95C22.8567 30.4633 22.1869 28.9746 21.6846 27.5032H21.6836C20.8694 25.5407 20.3891 23.398 20.3497 21.1427C20.1823 11.5511 27.7947 2.96992 37.4248 2.80182ZM104.759 1.42138L111.987 23.3035L112.144 23.7784L111.669 23.9351L106.043 25.7933L105.568 25.9501L105.412 25.4752L98.1844 3.59408L98.0274 3.11921L98.5024 2.96246L104.128 1.10423L104.603 0.947484L104.759 1.42138ZM111.758 8.83064L113.195 13.1822L113.352 13.6571L112.877 13.8138L110.064 14.743L109.589 14.8997L109.432 14.4248L107.995 10.0743L107.838 9.59938L108.313 9.44258L111.126 8.51251L111.601 8.35576L111.758 8.83064Z"/>
</mask>
<path d="M54.0878 59.7238C54.0856 59.7233 54.0831 59.7235 54.0809 59.7229C54.0749 59.7215 54.0682 59.7208 54.0525 59.7176C54.0392 59.7149 54.0186 59.7105 53.9957 59.7049H53.9937C53.7878 59.6545 53.5741 59.5922 53.3566 59.5227C53.3307 59.5144 53.3054 59.5052 53.2859 59.4985C53.2646 59.4911 53.2491 59.4855 53.2348 59.4808C53.2058 59.4715 53.1601 59.4567 53.1464 59.4521L53.1424 59.4502C53.1077 59.4383 53.0232 59.4106 52.9676 59.3908C52.806 59.3336 52.6415 59.2704 52.4789 59.2059L52.476 59.205C52.4664 59.2011 52.4561 59.1969 52.4405 59.1909C52.4262 59.1855 52.4059 59.1772 52.3845 59.1685C52.2923 59.1313 52.1978 59.0908 52.1119 59.0541C52.0175 59.0143 51.919 58.9725 51.8177 58.9274C51.715 58.8818 51.6107 58.8342 51.5115 58.7882C51.4571 58.763 51.4002 58.7358 51.349 58.7119L51.3451 58.71C51.2281 58.6543 51.1056 58.5962 50.9806 58.5347L50.9796 58.5337C50.8381 58.4637 50.6941 58.3914 50.55 58.3176C50.503 58.2934 50.4506 58.2667 50.3992 58.2401L50.3854 58.2325L50.3835 58.2316L49.7554 57.8948C49.5604 57.7875 49.3623 57.6736 49.1655 57.5604C49.0357 57.486 48.9034 57.4087 48.7767 57.3337V57.3327C48.4182 57.1215 48.0536 56.9004 47.6809 56.6662C47.6198 56.6283 47.5581 56.5878 47.5021 56.5521C47.0493 56.2644 46.5866 55.9613 46.1149 55.6416L46.1139 55.6407C46.0964 55.6287 46.0782 55.6166 46.0606 55.6045L45.2904 55.0719C45.0367 54.8939 44.7808 54.712 44.523 54.5257L44.5151 54.5209L44.5042 54.5123C40.7706 51.8124 36.6639 48.2815 32.9216 44.3399L32.3763 43.7663L33.129 43.5207L76.1562 29.4883L86.3041 26.1779L87.2364 25.8735L86.9343 26.8076C84.5284 34.2499 78.1673 42.2976 71.6555 48.5639C68.3928 51.7035 65.0748 54.4129 62.1666 56.3909C60.7127 57.3797 59.355 58.1903 58.153 58.7806C56.9586 59.3673 55.8872 59.7518 55.0132 59.862L54.9586 59.8688L54.9048 59.8639C54.685 59.8435 54.4527 59.8025 54.226 59.7546C54.1904 59.7474 54.1497 59.7371 54.1064 59.7274C54.104 59.727 54.1006 59.7271 54.0976 59.7266C54.0946 59.726 54.0914 59.7246 54.0878 59.7238ZM54.0878 59.7238C54.0894 59.7242 54.0911 59.7243 54.0927 59.7247ZM54.0878 59.7238C54.0856 59.7233 54.0831 59.7235 54.0809 59.7229C54.0852 59.7239 54.0891 59.724 54.0927 59.7247M54.0927 59.7247C54.0954 59.7253 54.0983 59.7271 54.1006 59.7275C54.1019 59.7277 54.1033 59.7272 54.1045 59.7274C54.1005 59.7265 54.0966 59.7256 54.0927 59.7247ZM13.8506 26.6173L22.7918 54.9577L22.9418 55.4347L22.4648 55.5846L16.8144 57.3681L16.3375 57.518L16.1875 57.0411L7.24626 28.7006L7.09526 28.2237L7.57226 28.0738L13.2227 26.2903L13.6996 26.1404L13.8506 26.6173ZM8.09866 31.9304L15.0311 53.9075L15.182 54.3844L14.7051 54.5344L9.05466 56.3178L8.57766 56.4678L8.42676 55.9908L1.49434 34.0147L1.34341 33.5378L1.82034 33.3869L7.47076 31.6044L7.94766 31.4535L8.09866 31.9304ZM3.92952 42.9257L5.30776 47.2959L5.45766 47.7728L4.98174 47.9228L2.15604 48.814L1.67911 48.9649L1.52819 48.488L0.14995 44.1179L0 43.6409L0.47693 43.49L3.30165 42.5987L3.7786 42.4488L3.92952 42.9257ZM93.6538 14.5323L95.0912 18.8838L95.249 19.3606L94.7712 19.5164L20.4951 43.7393L20.0212 43.8931L19.8654 43.4201L18.4279 39.0686L18.2702 38.5918L18.748 38.4369L93.0241 14.2141L93.498 14.0593L93.6538 14.5323ZM96.9864 0.474874L106.307 28.6935L106.463 29.1683L105.989 29.3251L100.363 31.1833L99.8884 31.3401L99.7314 30.8652L90.4107 2.64758L90.2539 2.1727L90.7278 2.01597L96.3544 0.156749L96.8294 0L96.9864 0.474874ZM37.4248 2.80182C39.8068 2.76028 41.9797 3.34433 43.9162 4.26297L44.3004 4.45063L44.3693 4.48557L44.3723 4.48845C49.5501 7.13411 52.9927 12.1519 54.1587 14.0437C54.2704 13.8478 54.4039 13.6203 54.5581 13.3667C55.0998 12.4766 55.9036 11.262 56.9532 9.96208C59.0453 7.37102 62.15 4.39591 66.1458 3.01154C66.4672 2.89993 66.7936 2.80045 67.1241 2.71122L67.1289 2.71016C67.1432 2.70646 67.1577 2.70217 67.1746 2.69764C67.1905 2.69338 67.2087 2.68883 67.2271 2.68403L67.6706 2.57568C67.8187 2.54216 67.9675 2.51085 68.1173 2.48194L68.3158 2.44233C68.5953 2.39254 68.8781 2.35374 69.1596 2.32114L69.1615 2.32013C69.1939 2.3165 69.2267 2.3122 69.2687 2.30654C69.3081 2.30124 69.3554 2.2953 69.4052 2.29049C69.7591 2.256 70.1214 2.23209 70.4921 2.22561C77.0755 2.11069 82.851 5.96301 85.8968 11.4582L86.1902 11.9883L85.6143 12.1761L24.2453 32.1897L23.8461 32.3197L23.6492 31.95C22.8567 30.4633 22.1869 28.9746 21.6846 27.5032H21.6836C20.8694 25.5407 20.3891 23.398 20.3497 21.1427C20.1823 11.5511 27.7947 2.96992 37.4248 2.80182ZM104.759 1.42138L111.987 23.3035L112.144 23.7784L111.669 23.9351L106.043 25.7933L105.568 25.9501L105.412 25.4752L98.1844 3.59408L98.0274 3.11921L98.5024 2.96246L104.128 1.10423L104.603 0.947484L104.759 1.42138ZM111.758 8.83064L113.195 13.1822L113.352 13.6571L112.877 13.8138L110.064 14.743L109.589 14.8997L109.432 14.4248L107.995 10.0743L107.838 9.59938L108.313 9.44258L111.126 8.51251L111.601 8.35576L111.758 8.83064Z" fill="#D9D9D9"/>
<path d="M54.0809 59.7229L53.7462 60.0944L53.8346 60.174L53.9493 60.2053L54.0809 59.7229ZM54.0878 59.7238L54.1986 59.2362C54.1849 59.2331 54.1728 59.231 54.1629 59.2294C54.1531 59.2279 54.1447 59.2269 54.1385 59.2263C54.1324 59.2256 54.1274 59.2252 54.1248 59.225C54.1235 59.2249 54.1224 59.2248 54.1219 59.2248C54.1216 59.2248 54.1214 59.2248 54.1213 59.2247C54.1213 59.2247 54.1213 59.2247 54.1215 59.2248C54.1218 59.2248 54.1246 59.225 54.1283 59.2253C54.1322 59.2257 54.1382 59.2263 54.1456 59.2272C54.1599 59.229 54.1836 59.2327 54.2124 59.2405L54.0809 59.7229L53.9493 60.2053C53.9792 60.2134 54.0041 60.2173 54.0195 60.2192C54.0275 60.2202 54.0341 60.2209 54.0385 60.2213C54.0428 60.2217 54.0463 60.2219 54.0472 60.222C54.0492 60.2221 54.0469 60.222 54.0456 60.2219C54.0435 60.2217 54.0392 60.2213 54.0336 60.2208C54.0231 60.2197 54.0025 60.2172 53.977 60.2114L54.0878 59.7238ZM54.0809 59.7229L54.4155 59.3514L54.4145 59.3505L54.0799 59.722L53.7452 60.0935L53.7462 60.0944L54.0809 59.7229ZM54.0878 59.7238L54.3047 58.7476L53.8452 60.6939L54.0878 59.7238ZM54.0809 59.7229L53.8536 60.6967L53.8543 60.6969L54.0809 59.7229ZM54.0525 59.7176L54.2522 58.7377L54.2514 58.7376L54.0525 59.7176ZM53.9957 59.7049L54.2332 58.7335L54.1162 58.7049H53.9957V59.7049ZM53.9937 59.7049L53.7559 60.6762L53.8731 60.7049H53.9937V59.7049ZM53.3566 59.5227L53.0514 60.475L53.0522 60.4752L53.3566 59.5227ZM53.2859 59.4985L52.9577 60.4431L52.9609 60.4442L53.2859 59.4985ZM53.2348 59.4808L53.547 58.5308L53.5401 58.5286L53.2348 59.4808ZM53.1464 59.4521L52.7172 60.3553L52.7713 60.381L52.8281 60.4001L53.1464 59.4521ZM53.1424 59.4502L53.5716 58.547L53.5204 58.5226L53.4668 58.5043L53.1424 59.4502ZM52.9676 59.3908L53.303 58.4487L53.3012 58.4481L52.9676 59.3908ZM52.4789 59.2059L52.8476 58.2763L52.812 58.2622L52.7754 58.2509L52.4789 59.2059ZM52.476 59.205L52.0996 60.1315L52.1389 60.1474L52.1794 60.16L52.476 59.205ZM52.4405 59.1909L52.7994 58.2575L52.7937 58.2554L52.4405 59.1909ZM52.3845 59.1685L52.7611 58.2421L52.7586 58.2411L52.3845 59.1685ZM52.1119 59.0541L52.5047 58.1345L52.5004 58.1326L52.1119 59.0541ZM51.8177 58.9274L52.2244 58.0138L52.2235 58.0134L51.8177 58.9274ZM51.5115 58.7882L51.9321 57.881L51.9318 57.8808L51.5115 58.7882ZM51.349 58.7119L50.9113 59.611L50.9186 59.6146L50.926 59.618L51.349 58.7119ZM51.3451 58.71L51.7828 57.8108L51.7749 57.8071L51.3451 58.71ZM50.9806 58.5347L50.2721 59.2404L50.3897 59.3584L50.5391 59.432L50.9806 58.5347ZM50.9796 58.5337L51.688 57.8279L51.5713 57.7107L51.423 57.6374L50.9796 58.5337ZM50.55 58.3176L50.0922 59.2067L50.0941 59.2076L50.55 58.3176ZM50.3992 58.2401L49.9167 59.116L49.9281 59.1223L49.9395 59.1282L50.3992 58.2401ZM50.3854 58.2325L50.8678 57.3565L50.8411 57.3419L50.8136 57.3288L50.3854 58.2325ZM50.3835 58.2316L49.9109 59.1129L49.9328 59.1246L49.9552 59.1353L50.3835 58.2316ZM49.7554 57.8948L49.2732 58.771L49.2828 58.7761L49.7554 57.8948ZM49.1655 57.5604L49.6641 56.6936L49.6628 56.6928L49.1655 57.5604ZM48.7767 57.3337H47.7767V57.9038L48.2673 58.1942L48.7767 57.3337ZM48.7767 57.3327H49.7767V56.7612L49.2842 56.4711L48.7767 57.3327ZM47.6809 56.6662L48.2129 55.8195L48.208 55.8164L47.6809 56.6662ZM47.5021 56.5521L48.0396 55.7089L48.0383 55.708L47.5021 56.5521ZM46.1149 55.6416L45.4456 56.3846L45.4968 56.4307L45.5538 56.4694L46.1149 55.6416ZM46.1139 55.6407L46.7831 54.8977L46.734 54.8534L46.6794 54.816L46.1139 55.6407ZM46.0606 55.6045L45.4918 56.427L45.494 56.4285L46.0606 55.6045ZM45.2904 55.0719L44.716 55.8905L44.7216 55.8944L45.2904 55.0719ZM44.523 54.5257L45.1087 53.7152L45.0763 53.6918L45.0421 53.671L44.523 54.5257ZM44.5151 54.5209L43.8957 55.306L43.9437 55.3438L43.9959 55.3756L44.5151 54.5209ZM44.5042 54.5123L45.1235 53.7272L45.1071 53.7142L45.0901 53.702L44.5042 54.5123ZM32.9216 44.3399L33.6468 43.6514L33.6463 43.6509L32.9216 44.3399ZM32.3763 43.7663L32.0661 42.8156L30.5599 43.3071L31.6515 44.4553L32.3763 43.7663ZM33.129 43.5207L32.8189 42.57L32.8188 42.57L33.129 43.5207ZM76.1562 29.4883L76.4662 30.439L76.4663 30.439L76.1562 29.4883ZM86.3041 26.1779L86.6142 27.1286L86.6144 27.1285L86.3041 26.1779ZM87.2364 25.8735L88.1878 26.1812L88.7918 24.3137L86.926 24.9229L87.2364 25.8735ZM86.9343 26.8076L85.9828 26.4999L85.9827 26.5L86.9343 26.8076ZM71.6555 48.5639L72.3488 49.2845L72.3488 49.2844L71.6555 48.5639ZM62.1666 56.3909L62.7289 57.2178L62.729 57.2178L62.1666 56.3909ZM58.153 58.7806L57.7122 57.883L57.7121 57.883L58.153 58.7806ZM55.0132 59.862L55.1368 60.8543L55.1383 60.8541L55.0132 59.862ZM54.9586 59.8688L54.8678 60.8647L54.9752 60.8744L55.0822 60.8611L54.9586 59.8688ZM54.9048 59.8639L54.8123 60.8596L54.814 60.8598L54.9048 59.8639ZM54.226 59.7546L54.4327 58.7761L54.4242 58.7744L54.226 59.7546ZM54.1064 59.7274L54.325 58.7516L54.298 58.7455L54.2708 58.741L54.1064 59.7274ZM54.0976 59.7266L53.9014 60.7072L53.9173 60.7103L53.9332 60.713L54.0976 59.7266ZM54.1006 59.7275L53.9292 60.7127L53.9388 60.7144L53.9485 60.7159L54.1006 59.7275ZM54.1045 59.7274L53.9401 60.7138L54.324 58.7518L54.1045 59.7274ZM13.8506 26.6173L14.8042 26.3164L14.8039 26.3154L13.8506 26.6173ZM22.7918 54.9577L23.7457 54.6577L23.7454 54.6568L22.7918 54.9577ZM22.9418 55.4347L23.2416 56.3887L24.1957 56.0888L23.8957 55.1347L22.9418 55.4347ZM22.4648 55.5846L22.165 54.6306L22.1638 54.631L22.4648 55.5846ZM16.8144 57.3681L17.1142 58.3221L17.1154 58.3217L16.8144 57.3681ZM16.3375 57.518L15.3835 57.818L15.6835 58.7718L16.6373 58.472L16.3375 57.518ZM16.1875 57.0411L17.1414 56.741L17.1411 56.7402L16.1875 57.0411ZM7.24626 28.7006L8.19993 28.3997L8.19961 28.3987L7.24626 28.7006ZM7.09526 28.2237L6.79546 27.2697L5.8394 27.5701L6.14191 28.5255L7.09526 28.2237ZM7.57226 28.0738L7.87206 29.0278L7.87326 29.0274L7.57226 28.0738ZM13.2227 26.2903L12.9228 25.3363L12.9217 25.3367L13.2227 26.2903ZM13.6996 26.1404L14.6529 25.8385L14.3517 24.8872L13.3997 25.1864L13.6996 26.1404ZM8.09866 31.9304L9.05234 31.6296L9.05201 31.6285L8.09866 31.9304ZM15.0311 53.9075L14.0774 54.2083L14.0777 54.2092L15.0311 53.9075ZM15.182 54.3844L15.482 55.3383L16.4376 55.0378L16.1354 54.0827L15.182 54.3844ZM14.7051 54.5344L14.405 53.5805L14.4041 53.5808L14.7051 54.5344ZM9.05466 56.3178L9.35464 57.2717L9.35565 57.2714L9.05466 56.3178ZM8.57766 56.4678L7.62423 56.7694L7.92533 57.7212L8.87764 57.4217L8.57766 56.4678ZM8.42676 55.9908L7.47309 56.2916L7.47333 56.2924L8.42676 55.9908ZM1.49434 34.0147L2.44802 33.7138L2.44773 33.713L1.49434 34.0147ZM1.34341 33.5378L1.04175 32.5844L0.0882623 32.886L0.390017 33.8395L1.34341 33.5378ZM1.82034 33.3869L1.51949 32.4332L1.51868 32.4335L1.82034 33.3869ZM7.47076 31.6044L7.77161 32.5581L7.77244 32.5578L7.47076 31.6044ZM7.94766 31.4535L8.90101 31.1516L8.59921 30.1984L7.64598 30.5001L7.94766 31.4535ZM3.92952 42.9257L4.88322 42.6249L4.88292 42.624L3.92952 42.9257ZM5.30776 47.2959L6.26174 46.996L6.26146 46.9951L5.30776 47.2959ZM5.45766 47.7728L5.75827 48.7265L6.71127 48.4262L6.41164 47.4729L5.45766 47.7728ZM4.98174 47.9228L4.68114 46.969L4.68095 46.9691L4.98174 47.9228ZM2.15604 48.814L1.85526 47.8603L1.85438 47.8606L2.15604 48.814ZM1.67911 48.9649L0.725711 49.2666L1.02741 50.2199L1.98077 49.9183L1.67911 48.9649ZM1.52819 48.488L0.574495 48.7888L0.574791 48.7897L1.52819 48.488ZM0.14995 44.1179L-0.804024 44.4178L-0.803745 44.4187L0.14995 44.1179ZM0 43.6409L-0.301656 42.6875L-1.25331 42.9886L-0.953973 43.9408L0 43.6409ZM0.47693 43.49L0.176019 42.5363L0.175274 42.5366L0.47693 43.49ZM3.30165 42.5987L3.00182 41.6447L3.00074 41.645L3.30165 42.5987ZM3.7786 42.4488L4.732 42.1471L4.43088 41.1955L3.47877 41.4948L3.7786 42.4488ZM93.6538 14.5323L92.704 14.8451L92.7042 14.8459L93.6538 14.5323ZM95.0912 18.8838L94.1416 19.1974L94.1418 19.198L95.0912 18.8838ZM95.249 19.3606L95.559 20.3113L96.5139 19.9999L96.1983 19.0464L95.249 19.3606ZM94.7712 19.5164L94.4612 18.5657L94.4611 18.5657L94.7712 19.5164ZM20.4951 43.7393L20.8038 44.6904L20.8051 44.69L20.4951 43.7393ZM20.0212 43.8931L19.0714 44.2059L19.3828 45.1516L20.3299 44.8442L20.0212 43.8931ZM19.8654 43.4201L20.8152 43.1072L20.8149 43.1064L19.8654 43.4201ZM18.4279 39.0686L19.3774 38.7549L19.3773 38.7546L18.4279 39.0686ZM18.2702 38.5918L17.9618 37.6405L17.0049 37.9507L17.3207 38.9058L18.2702 38.5918ZM18.748 38.4369L19.0564 39.3881L19.058 39.3876L18.748 38.4369ZM93.0241 14.2141L93.3341 15.1648L93.3346 15.1647L93.0241 14.2141ZM93.498 14.0593L94.4478 13.7464L94.1357 12.799L93.1875 13.1087L93.498 14.0593ZM96.9864 0.474874L97.9359 0.161228L97.9358 0.160975L96.9864 0.474874ZM106.307 28.6935L107.257 28.3813L107.257 28.3798L106.307 28.6935ZM106.463 29.1683L106.777 30.1177L107.725 29.8043L107.413 28.8561L106.463 29.1683ZM105.989 29.3251L106.303 30.2746L106.303 30.2745L105.989 29.3251ZM100.363 31.1833L100.677 32.1329L100.677 32.1328L100.363 31.1833ZM99.8884 31.3401L98.9389 31.654L99.2526 32.603L100.202 32.2897L99.8884 31.3401ZM99.7314 30.8652L98.7818 31.1788L98.7819 31.1791L99.7314 30.8652ZM90.4107 2.64758L89.4611 2.96112L89.4611 2.96123L90.4107 2.64758ZM90.2539 2.1727L89.9399 1.22328L88.9909 1.53713L89.3043 2.48624L90.2539 2.1727ZM90.7278 2.01597L90.414 1.06647L90.4138 1.06655L90.7278 2.01597ZM96.3544 0.156749L96.041 -0.79288L96.0406 -0.792757L96.3544 0.156749ZM96.8294 0L97.7788 -0.313899L97.4651 -1.26283L96.516 -0.949629L96.8294 0ZM37.4248 2.80182L37.4073 1.80198L37.4073 1.80198L37.4248 2.80182ZM43.9162 4.26297L44.3551 3.36437L44.3448 3.35948L43.9162 4.26297ZM44.3004 4.45063L44.7527 3.55876L44.746 3.55538L44.7392 3.55209L44.3004 4.45063ZM44.3693 4.48557L45.0615 3.76395L44.9542 3.66098L44.8216 3.5937L44.3693 4.48557ZM44.3723 4.48845L43.68 5.21008L43.7862 5.31197L43.9173 5.37894L44.3723 4.48845ZM54.1587 14.0437L53.3074 14.5684L54.1921 16.0039L55.0274 14.539L54.1587 14.0437ZM54.5581 13.3667L53.7038 12.8468L53.7036 12.8471L54.5581 13.3667ZM56.9532 9.96208L57.7312 10.5903L57.7312 10.5903L56.9532 9.96208ZM66.1458 3.01154L66.4731 3.95644L66.4738 3.95621L66.1458 3.01154ZM67.1241 2.71122L66.9084 1.73476L66.8858 1.73976L66.8634 1.74579L67.1241 2.71122ZM67.1289 2.71016L67.3446 3.68663L67.362 3.68277L67.3794 3.67828L67.1289 2.71016ZM67.1746 2.69764L66.9158 1.73171L66.9156 1.73174L67.1746 2.69764ZM67.2271 2.68403L66.9897 1.7126L66.9822 1.71445L66.9746 1.71642L67.2271 2.68403ZM67.6706 2.57568L67.4498 1.60035L67.4415 1.60223L67.4332 1.60425L67.6706 2.57568ZM68.1173 2.48194L68.3068 3.46385L68.313 3.46261L68.1173 2.48194ZM68.3158 2.44233L68.1404 1.45783L68.1302 1.45965L68.1201 1.46167L68.3158 2.44233ZM69.1596 2.32114L69.2746 3.31451L69.4622 3.29278L69.629 3.20412L69.1596 2.32114ZM69.1615 2.32013L69.0501 1.32635L68.8605 1.34759L68.692 1.43716L69.1615 2.32013ZM69.2687 2.30654L69.1353 1.31547L69.1351 1.3155L69.2687 2.30654ZM69.4052 2.29049L69.5013 3.28586L69.5022 3.28578L69.4052 2.29049ZM70.4921 2.22561L70.4746 1.22577L70.4746 1.22577L70.4921 2.22561ZM85.8968 11.4582L86.7717 10.9739L86.7714 10.9734L85.8968 11.4582ZM86.1902 11.9883L86.5002 12.939L87.6515 12.5636L87.0651 11.504L86.1902 11.9883ZM85.6143 12.1761L85.3042 11.2254L85.3042 11.2254L85.6143 12.1761ZM24.2453 32.1897L24.5549 33.1405L24.5553 33.1404L24.2453 32.1897ZM23.8461 32.3197L22.9634 32.7898L23.3579 33.5304L24.1557 33.2705L23.8461 32.3197ZM23.6492 31.95L24.5318 31.4799L24.5316 31.4796L23.6492 31.95ZM21.6846 27.5032L22.6309 27.1801L22.3998 26.5032H21.6846V27.5032ZM21.6836 27.5032L20.7599 27.8864L21.0158 28.5032H21.6836V27.5032ZM20.3497 21.1427L19.3498 21.1601V21.1602L20.3497 21.1427ZM104.759 1.42138L103.81 1.73406L103.81 1.73503L104.759 1.42138ZM111.987 23.3035L111.038 23.6171L111.038 23.6174L111.987 23.3035ZM112.144 23.7784L112.458 24.728L113.408 24.4146L113.094 23.4645L112.144 23.7784ZM111.669 23.9351L111.356 22.9854L111.356 22.9855L111.669 23.9351ZM106.043 25.7933L106.357 26.7429L106.357 26.7428L106.043 25.7933ZM105.568 25.9501L104.618 26.2622L104.931 27.2136L105.882 26.8997L105.568 25.9501ZM105.412 25.4752L106.362 25.1631L106.362 25.1615L105.412 25.4752ZM98.1844 3.59408L99.1339 3.28042L99.1338 3.28018L98.1844 3.59408ZM98.0274 3.11921L97.714 2.16959L96.7638 2.48314L97.0779 3.43312L98.0274 3.11921ZM98.5024 2.96246L98.8157 3.91209L98.816 3.91201L98.5024 2.96246ZM104.128 1.10423L103.815 0.154604L103.815 0.154688L104.128 1.10423ZM104.603 0.947484L105.553 0.634809L105.24 -0.31575L104.29 -0.00214585L104.603 0.947484ZM111.758 8.83064L112.708 8.51707L112.708 8.51674L111.758 8.83064ZM113.195 13.1822L112.246 13.4958L112.246 13.4961L113.195 13.1822ZM113.352 13.6571L113.666 14.6067L114.616 14.2933L114.302 13.3432L113.352 13.6571ZM112.877 13.8138L112.564 12.8641L112.564 12.8642L112.877 13.8138ZM110.064 14.743L110.378 15.6926L110.378 15.6925L110.064 14.743ZM109.589 14.8997L108.64 15.2136L108.954 16.1624L109.903 15.8493L109.589 14.8997ZM109.432 14.4248L108.483 14.7384L108.483 14.7387L109.432 14.4248ZM107.995 10.0743L108.945 9.76064L108.945 9.7604L107.995 10.0743ZM107.838 9.59938L107.525 8.64979L106.575 8.96339L106.889 9.91327L107.838 9.59938ZM108.313 9.44258L108.627 10.3922L108.627 10.392L108.313 9.44258ZM111.126 8.51251L110.813 7.56289L110.812 7.56306L111.126 8.51251ZM111.601 8.35576L112.551 8.04186L112.237 7.09293L111.288 7.40614L111.601 8.35576ZM54.0809 59.7229L54.3081 58.749C54.2847 58.7436 54.2656 58.74 54.2551 58.7381C54.2498 58.7371 54.2454 58.7363 54.243 58.7359C54.2418 58.7357 54.2407 58.7355 54.2401 58.7354C54.2392 58.7353 54.2391 58.7353 54.2387 58.7352C54.238 58.7351 54.2401 58.7354 54.2431 58.736C54.2462 58.7365 54.2493 58.7371 54.2522 58.7377L54.0525 59.7176L53.8527 60.6974C53.8635 60.6996 53.8733 60.7015 53.8823 60.7032C53.8911 60.7048 53.8982 60.706 53.9019 60.7066C53.9025 60.7067 53.9036 60.7069 53.9037 60.7069C53.9041 60.707 53.904 60.707 53.9037 60.7069C53.9033 60.7069 53.9007 60.7064 53.8971 60.7058C53.8901 60.7045 53.8741 60.7015 53.8536 60.6967L54.0809 59.7229ZM54.0525 59.7176L54.2514 58.7376C54.2498 58.7373 54.247 58.7367 54.2435 58.7359C54.2399 58.7351 54.2363 58.7343 54.2332 58.7335L53.9957 59.7049L53.7581 60.6763C53.7969 60.6857 53.8308 60.693 53.8535 60.6976L54.0525 59.7176ZM53.9957 59.7049V58.7049H53.9937V59.7049V60.7049H53.9957V59.7049ZM53.9937 59.7049L54.2314 58.7336C54.0541 58.6902 53.8635 58.6349 53.6609 58.5701L53.3566 59.5227L53.0522 60.4752C53.2846 60.5495 53.5214 60.6188 53.7559 60.6762L53.9937 59.7049ZM53.3566 59.5227L53.6617 58.5704C53.6602 58.5699 53.6563 58.5686 53.6474 58.5655C53.6428 58.5639 53.6387 58.5625 53.6323 58.5602C53.6267 58.5583 53.6189 58.5555 53.6108 58.5528L53.2859 59.4985L52.9609 60.4442C52.9699 60.4473 52.9682 60.4468 52.9902 60.4544C53.0053 60.4597 53.027 60.4672 53.0514 60.475L53.3566 59.5227ZM53.2859 59.4985L53.614 58.5539C53.6091 58.5522 53.5716 58.5389 53.547 58.5308L53.2348 59.4808L52.9225 60.4308C52.9203 60.4301 52.9204 60.4301 52.9275 60.4325C52.9311 60.4338 52.9342 60.4349 52.9399 60.4369C52.9449 60.4387 52.951 60.4408 52.9577 60.4431L53.2859 59.4985ZM53.2348 59.4808L53.5401 58.5286C53.5268 58.5243 53.5092 58.5186 53.4934 58.5135C53.4855 58.5109 53.4784 58.5086 53.4728 58.5068C53.4663 58.5046 53.4641 58.5039 53.4647 58.5041L53.1464 59.4521L52.8281 60.4001C52.8493 60.4072 52.9015 60.4241 52.9294 60.433L53.2348 59.4808ZM53.1464 59.4521L53.5756 58.5489L53.5716 58.547L53.1424 59.4502L52.7132 60.3534L52.7172 60.3553L53.1464 59.4521ZM53.1424 59.4502L53.4668 58.5043C53.4455 58.497 53.4075 58.4843 53.3812 58.4755C53.349 58.4647 53.3215 58.4553 53.303 58.4487L52.9676 59.3908L52.6321 60.3328C52.6908 60.3537 52.8109 60.3937 52.818 60.3961L53.1424 59.4502ZM52.9676 59.3908L53.3012 58.4481C53.156 58.3967 53.0042 58.3385 52.8476 58.2763L52.4789 59.2059L52.1101 60.1354C52.2787 60.2023 52.456 60.2705 52.6339 60.3335L52.9676 59.3908ZM52.4789 59.2059L52.7754 58.2509L52.7725 58.25L52.476 59.205L52.1794 60.16L52.1823 60.1609L52.4789 59.2059ZM52.476 59.205L52.8523 58.2785C52.8425 58.2745 52.8246 58.2672 52.7994 58.2575L52.4405 59.1909L52.0815 60.1242C52.0849 60.1255 52.0873 60.1265 52.0893 60.1273C52.0919 60.1283 52.0939 60.1292 52.0996 60.1315L52.476 59.205ZM52.4405 59.1909L52.7937 58.2554C52.7959 58.2562 52.7966 58.2565 52.7952 58.2559C52.7939 58.2554 52.7917 58.2545 52.7884 58.2532C52.781 58.2502 52.7732 58.247 52.7611 58.2421L52.3845 59.1685L52.0079 60.0949C52.022 60.1006 52.0579 60.1153 52.0872 60.1264L52.4405 59.1909ZM52.3845 59.1685L52.7586 58.2411C52.6777 58.2085 52.5933 58.1723 52.5047 58.1345L52.1119 59.0541L51.719 59.9737C51.8022 60.0092 51.9068 60.0541 52.0103 60.0958L52.3845 59.1685ZM52.1119 59.0541L52.5004 58.1326C52.4068 58.0932 52.316 58.0546 52.2244 58.0138L51.8177 58.9274L51.4109 59.8409C51.5219 59.8903 51.6281 59.9354 51.7234 59.9755L52.1119 59.0541ZM51.8177 58.9274L52.2235 58.0134C52.1269 57.9705 52.0277 57.9253 51.9321 57.881L51.5115 58.7882L51.0908 59.6954C51.1936 59.7431 51.303 59.793 51.4119 59.8413L51.8177 58.9274ZM51.5115 58.7882L51.9318 57.8808C51.8723 57.8533 51.8416 57.8382 51.7719 57.8057L51.349 58.7119L50.926 59.618C50.9587 59.6333 51.0418 59.6727 51.0911 59.6956L51.5115 58.7882ZM51.349 58.7119L51.7867 57.8128L51.7828 57.8109L51.3451 58.71L50.9074 59.6091L50.9113 59.611L51.349 58.7119ZM51.3451 58.71L51.7749 57.8071C51.6557 57.7504 51.5399 57.6954 51.422 57.6374L50.9806 58.5347L50.5391 59.432C50.6712 59.497 50.8004 59.5582 50.9152 59.6129L51.3451 58.71ZM50.9806 58.5347L51.689 57.8289L51.688 57.8279L50.9796 58.5337L50.2711 59.2394L50.2721 59.2404L50.9806 58.5347ZM50.9796 58.5337L51.423 57.6374C51.285 57.5691 51.1452 57.4989 51.0058 57.4275L50.55 58.3176L50.0941 59.2076C50.2429 59.2838 50.3911 59.3582 50.5362 59.43L50.9796 58.5337ZM50.55 58.3176L51.0077 57.4285C50.9539 57.4008 50.9106 57.3788 50.8588 57.352L50.3992 58.2401L49.9395 59.1282C49.9906 59.1546 50.052 59.186 50.0922 59.2067L50.55 58.3176ZM50.3992 58.2401L50.8816 57.3641L50.8678 57.3565L50.3854 58.2325L49.903 59.1084L49.9167 59.116L50.3992 58.2401ZM50.3854 58.2325L50.8136 57.3288L50.8117 57.3279L50.3835 58.2316L49.9552 59.1353L49.9571 59.1362L50.3854 58.2325ZM50.3835 58.2316L50.856 57.3503L50.2279 57.0135L49.7554 57.8948L49.2828 58.7761L49.9109 59.1129L50.3835 58.2316ZM49.7554 57.8948L50.2374 57.0187C50.0521 56.9167 49.8622 56.8075 49.6641 56.6936L49.1655 57.5604L48.6669 58.4272C48.8623 58.5396 49.0686 58.6583 49.2733 58.7709L49.7554 57.8948ZM49.1655 57.5604L49.6628 56.6928C49.5377 56.6211 49.4095 56.5462 49.2861 56.4732L48.7767 57.3337L48.2673 58.1942C48.3972 58.2711 48.5336 58.3508 48.6682 58.428L49.1655 57.5604ZM48.7767 57.3337H49.7767V57.3327H48.7767H47.7767V57.3337H48.7767ZM48.7767 57.3327L49.2842 56.4711C48.9333 56.2643 48.5769 56.0482 48.2129 55.8195L47.6809 56.6662L47.1488 57.5129C47.5302 57.7526 47.903 57.9786 48.2691 58.1943L48.7767 57.3327ZM47.6809 56.6662L48.208 55.8164C48.1526 55.782 48.1123 55.7552 48.0396 55.7089L47.5021 56.5521L46.9645 57.3953C47.0038 57.4204 47.087 57.4746 47.1537 57.516L47.6809 56.6662ZM47.5021 56.5521L48.0383 55.708C47.5936 55.4255 47.1392 55.1278 46.6759 54.8138L46.1149 55.6416L45.5538 56.4694C46.0339 56.7948 46.5049 57.1033 46.9658 57.3961L47.5021 56.5521ZM46.1149 55.6416L46.7841 54.8986L46.7831 54.8977L46.1139 55.6407L45.4446 56.3837L45.4456 56.3846L46.1149 55.6416ZM46.1139 55.6407L46.6794 54.816C46.6026 54.7633 46.6874 54.8219 46.6271 54.7804L46.0606 55.6045L45.494 56.4285C45.5067 56.4372 45.5188 56.4454 45.5274 56.4512C45.5372 56.4578 45.543 56.4618 45.5483 56.4654L46.1139 55.6407ZM46.0606 55.6045L46.6293 54.782L45.8591 54.2494L45.2904 55.0719L44.7216 55.8944L45.4918 56.427L46.0606 55.6045ZM45.2904 55.0719L45.8647 54.2533C45.6144 54.0777 45.3623 53.8985 45.1087 53.7152L44.523 54.5257L43.9372 55.3362C44.1992 55.5255 44.4589 55.7101 44.716 55.8905L45.2904 55.0719ZM44.523 54.5257L45.0421 53.671L45.0342 53.6662L44.5151 54.5209L43.9959 55.3756L44.0038 55.3804L44.523 54.5257ZM44.5151 54.5209L45.1344 53.7358L45.1235 53.7272L44.5042 54.5123L43.8848 55.2974L43.8957 55.306L44.5151 54.5209ZM44.5042 54.5123L45.0901 53.702C41.4058 51.0377 37.3458 47.5474 33.6468 43.6514L32.9216 44.3399L32.1964 45.0284C35.9819 49.0156 40.1354 52.5871 43.9182 55.3226L44.5042 54.5123ZM32.9216 44.3399L33.6463 43.6509L33.101 43.0773L32.3763 43.7663L31.6515 44.4553L32.1968 45.0289L32.9216 44.3399ZM32.3763 43.7663L32.6865 44.717L33.4392 44.4714L33.129 43.5207L32.8188 42.57L32.0661 42.8156L32.3763 43.7663ZM33.129 43.5207L33.439 44.4714L76.4662 30.439L76.1562 29.4883L75.8461 28.5376L32.8189 42.57L33.129 43.5207ZM76.1562 29.4883L76.4663 30.439L86.6142 27.1286L86.3041 26.1779L85.9939 25.2272L75.846 28.5376L76.1562 29.4883ZM86.3041 26.1779L86.6144 27.1285L87.5467 26.8241L87.2364 25.8735L86.926 24.9229L85.9937 25.2273L86.3041 26.1779ZM87.2364 25.8735L86.2849 25.5658L85.9828 26.4999L86.9343 26.8076L87.8857 27.1153L88.1878 26.1812L87.2364 25.8735ZM86.9343 26.8076L85.9827 26.5C83.6528 33.7073 77.4333 41.6161 70.9621 47.8433L71.6555 48.5639L72.3488 49.2844C78.9013 42.9791 85.4039 34.7924 87.8858 27.1152L86.9343 26.8076ZM71.6555 48.5639L70.9621 47.8433C67.7332 50.9503 64.4586 53.6225 61.6042 55.564L62.1666 56.3909L62.729 57.2178C65.6909 55.2032 69.0523 52.4566 72.3488 49.2845L71.6555 48.5639ZM62.1666 56.3909L61.6042 55.564C60.1767 56.5349 58.8604 57.3191 57.7122 57.883L58.153 58.7806L58.5938 59.6782C59.8495 59.0615 61.2486 58.2245 62.7289 57.2178L62.1666 56.3909ZM58.153 58.7806L57.7121 57.883C56.5566 58.4506 55.6011 58.7799 54.8881 58.8698L55.0132 59.862L55.1383 60.8541C56.1732 60.7236 57.3605 60.284 58.5939 59.6781L58.153 58.7806ZM55.0132 59.862L54.8895 58.8697L54.8349 58.8765L54.9586 59.8688L55.0822 60.8611L55.1368 60.8543L55.0132 59.862ZM54.9586 59.8688L55.0493 58.8729L54.9955 58.868L54.9048 59.8639L54.814 60.8598L54.8678 60.8647L54.9586 59.8688ZM54.9048 59.8639L54.9972 58.8682C54.8312 58.8528 54.6407 58.8201 54.4327 58.7762L54.226 59.7546L54.0192 60.733C54.2646 60.7848 54.5387 60.8342 54.8123 60.8596L54.9048 59.8639ZM54.226 59.7546L54.4242 58.7744C54.4243 58.7744 54.4237 58.7743 54.4225 58.7741C54.4213 58.7738 54.4195 58.7734 54.4171 58.7729C54.4121 58.7718 54.4058 58.7703 54.3968 58.7682C54.3818 58.7647 54.3527 58.7578 54.325 58.7516L54.1064 59.7274L53.8878 60.7032C53.9033 60.7067 53.9163 60.7098 53.9413 60.7156C53.962 60.7205 53.9939 60.7279 54.0277 60.7347L54.226 59.7546ZM54.1064 59.7274L54.2708 58.741C54.2488 58.7373 54.23 58.7349 54.216 58.7334C54.2019 58.7318 54.1902 58.7308 54.1821 58.7302C54.174 58.7296 54.1675 58.7291 54.1642 58.7289C54.1625 58.7288 54.1611 58.7288 54.1604 58.7287C54.16 58.7287 54.1597 58.7287 54.1596 58.7287C54.1595 58.7287 54.1596 58.7287 54.1596 58.7287C54.1598 58.7287 54.1629 58.7289 54.167 58.7291C54.1712 58.7294 54.1779 58.7299 54.186 58.7306C54.1942 58.7313 54.2048 58.7323 54.2172 58.7338C54.2296 58.7353 54.2448 58.7373 54.262 58.7402L54.0976 59.7266L53.9332 60.713C53.9511 60.716 53.967 60.7181 53.9802 60.7197C53.9934 60.7213 54.0048 60.7224 54.0137 60.7231C54.0226 60.7239 54.03 60.7244 54.0351 60.7248C54.0399 60.7251 54.0438 60.7253 54.0447 60.7254C54.045 60.7254 54.0453 60.7254 54.0453 60.7254C54.0454 60.7254 54.0453 60.7254 54.0451 60.7254C54.0448 60.7254 54.0438 60.7253 54.0424 60.7252C54.0399 60.7251 54.0341 60.7247 54.0267 60.7241C54.0193 60.7236 54.0083 60.7226 53.9948 60.7211C53.9815 60.7196 53.9634 60.7174 53.942 60.7138L54.1064 59.7274ZM54.0976 59.7266L54.2937 58.746C54.3131 58.7499 54.3298 58.7538 54.3434 58.7573C54.3569 58.7607 54.3683 58.764 54.3766 58.7664C54.3849 58.7688 54.3914 58.7709 54.3951 58.772C54.3984 58.7731 54.4012 58.774 54.4003 58.7737C54.4003 58.7737 54.3993 58.7734 54.3983 58.773C54.3972 58.7727 54.3954 58.7721 54.3933 58.7715C54.3892 58.7701 54.3827 58.7681 54.3748 58.7658C54.3592 58.7611 54.3348 58.7543 54.3047 58.7476L54.0878 59.7238L53.8708 60.7C53.8425 60.6937 53.8199 60.6873 53.8059 60.6832C53.7989 60.6811 53.7933 60.6793 53.79 60.6783C53.787 60.6773 53.7845 60.6765 53.7855 60.6768C53.7856 60.6769 53.7866 60.6772 53.7877 60.6776C53.7889 60.6779 53.7908 60.6786 53.7931 60.6793C53.7975 60.6807 53.8049 60.683 53.8139 60.6856C53.8231 60.6883 53.8352 60.6917 53.8495 60.6954C53.8638 60.699 53.8813 60.7031 53.9014 60.7072L54.0976 59.7266ZM54.0878 59.7238L53.8452 60.6939C53.8758 60.7016 53.9008 60.7063 53.9159 60.709C53.9237 60.7103 53.93 60.7113 53.9339 60.7119C53.9358 60.7123 53.9375 60.7125 53.9385 60.7127C53.939 60.7127 53.9394 60.7128 53.9397 60.7128C53.94 60.7129 53.9402 60.7129 53.9402 60.7129C53.9409 60.713 53.9383 60.7126 53.9351 60.7121C53.9316 60.7116 53.9257 60.7106 53.9184 60.7093C53.9041 60.7068 53.8799 60.7023 53.8501 60.6948L54.0927 59.7247L54.3352 58.7545C54.3046 58.7469 54.2796 58.7422 54.2645 58.7395C54.2568 58.7382 54.2504 58.7371 54.2466 58.7365C54.2446 58.7362 54.243 58.736 54.2419 58.7358C54.2414 58.7357 54.241 58.7357 54.2407 58.7356C54.2404 58.7356 54.2402 58.7355 54.2402 58.7355C54.2395 58.7354 54.2422 58.7358 54.2453 58.7363C54.2488 58.7369 54.2547 58.7378 54.262 58.7391C54.2763 58.7416 54.3006 58.7462 54.3303 58.7536L54.0878 59.7238ZM54.0809 59.7229L53.8543 60.6969C53.8842 60.7038 53.9099 60.7084 53.9291 60.7114C53.9475 60.7143 53.9622 60.7161 53.9668 60.7166C53.9681 60.7168 53.9691 60.7169 53.9695 60.717C53.97 60.717 53.9696 60.717 53.9692 60.7169C53.9683 60.7168 53.9645 60.7164 53.9595 60.7157C53.9499 60.7145 53.9287 60.7115 53.9018 60.7063L54.0927 59.7247L54.2835 58.7431C54.2688 58.7402 54.2559 58.738 54.2454 58.7364C54.2351 58.7348 54.2264 58.7336 54.2203 58.7328C54.2143 58.732 54.2096 58.7314 54.2078 58.7312C54.2072 58.7312 54.2068 58.7311 54.2065 58.7311C54.2064 58.731 54.2063 58.731 54.2062 58.731C54.2061 58.731 54.2061 58.731 54.2061 58.731C54.2059 58.731 54.2065 58.7311 54.2072 58.7312C54.2099 58.7315 54.2226 58.733 54.239 58.7356C54.2561 58.7383 54.2796 58.7424 54.3074 58.7489L54.0809 59.7229ZM54.0927 59.7247L53.8757 60.7009C53.8433 60.6937 53.8157 60.6858 53.7942 60.6791C53.7726 60.6723 53.7547 60.6658 53.7417 60.661C53.7288 60.6561 53.7186 60.6519 53.7129 60.6496C53.7078 60.6474 53.7033 60.6455 53.7049 60.6462C53.7051 60.6463 53.7066 60.6469 53.7085 60.6477C53.7105 60.6486 53.7137 60.6499 53.7175 60.6515C53.7249 60.6545 53.7376 60.6596 53.7537 60.6655C53.7697 60.6714 53.7925 60.6794 53.8202 60.6874C53.8478 60.6955 53.8849 60.705 53.9292 60.7127L54.1006 59.7275L54.2719 58.7423C54.3157 58.7499 54.3521 58.7593 54.3791 58.7671C54.4063 58.775 54.4284 58.7827 54.4438 58.7884C54.4592 58.794 54.4713 58.7989 54.478 58.8017C54.4815 58.8031 54.4843 58.8043 54.486 58.805C54.4868 58.8054 54.4875 58.8057 54.4879 58.8059C54.4882 58.8059 54.4883 58.806 54.4884 58.8061C54.4885 58.8061 54.4885 58.8061 54.4886 58.8061C54.4886 58.8061 54.4886 58.8061 54.4886 58.8061C54.4886 58.8061 54.4886 58.8061 54.4886 58.8061C54.4895 58.8065 54.4843 58.8043 54.4785 58.8019C54.4722 58.7993 54.4613 58.7948 54.4477 58.7897C54.434 58.7845 54.4155 58.7779 54.3932 58.7709C54.3709 58.7639 54.3427 58.7559 54.3096 58.7485L54.0927 59.7247ZM54.1006 59.7275L53.9485 60.7159C53.9928 60.7227 54.0323 60.7257 54.0654 60.7269C54.0984 60.7281 54.1266 60.7274 54.1482 60.7264C54.1696 60.7254 54.1869 60.7239 54.1974 60.7229C54.2028 60.7224 54.2072 60.722 54.2099 60.7217C54.2113 60.7215 54.2125 60.7214 54.2133 60.7213C54.214 60.7212 54.2146 60.7211 54.2146 60.7211C54.2153 60.7211 54.2134 60.7213 54.2114 60.7215C54.2092 60.7217 54.2052 60.7222 54.2002 60.7227C54.1905 60.7236 54.1734 60.7251 54.152 60.7262C54.1304 60.7272 54.101 60.7279 54.0663 60.7266C54.0313 60.7253 53.9885 60.7219 53.9401 60.7138L54.1045 59.7274L54.2689 58.741C54.2201 58.7329 54.177 58.7294 54.1417 58.7281C54.1067 58.7267 54.077 58.7275 54.0551 58.7285C54.0333 58.7296 54.0159 58.7311 54.0059 58.7321C54.0007 58.7326 53.9966 58.7331 53.9942 58.7333C53.992 58.7336 53.99 58.7338 53.9905 58.7337C53.9905 58.7337 53.9906 58.7337 53.9908 58.7337C53.991 58.7337 53.9912 58.7337 53.9916 58.7336C53.9923 58.7335 53.9933 58.7334 53.9947 58.7333C53.9973 58.733 54.0015 58.7325 54.0067 58.732C54.0169 58.7311 54.0339 58.7296 54.0549 58.7286C54.0761 58.7276 54.104 58.727 54.1367 58.7282C54.1695 58.7293 54.2087 58.7324 54.2526 58.7391L54.1006 59.7275ZM54.1045 59.7274L54.324 58.7518C54.3231 58.7516 54.3219 58.7513 54.3175 58.7503L54.0927 59.7247L53.8678 60.6991C53.8713 60.6999 53.8778 60.7014 53.8849 60.703L54.1045 59.7274ZM13.8506 26.6173L12.8969 26.9182L21.8381 55.2586L22.7918 54.9577L23.7454 54.6568L14.8042 26.3164L13.8506 26.6173ZM22.7918 54.9577L21.8378 55.2577L21.9878 55.7347L22.9418 55.4347L23.8957 55.1347L23.7457 54.6577L22.7918 54.9577ZM22.9418 55.4347L22.642 54.4807L22.165 54.6306L22.4648 55.5846L22.7646 56.5386L23.2416 56.3887L22.9418 55.4347ZM22.4648 55.5846L22.1638 54.631L16.5134 56.4145L16.8144 57.3681L17.1154 58.3217L22.7658 56.5382L22.4648 55.5846ZM16.8144 57.3681L16.5145 56.4141L16.0376 56.564L16.3375 57.518L16.6373 58.472L17.1142 58.3221L16.8144 57.3681ZM16.3375 57.518L17.2914 57.2179L17.1414 56.741L16.1875 57.0411L15.2335 57.3411L15.3835 57.818L16.3375 57.518ZM16.1875 57.0411L17.1411 56.7402L8.19992 28.3997L7.24626 28.7006L6.2926 29.0015L15.2338 57.342L16.1875 57.0411ZM7.24626 28.7006L8.19961 28.3987L8.04861 27.9218L7.09526 28.2237L6.14191 28.5255L6.29291 29.0024L7.24626 28.7006ZM7.09526 28.2237L7.39506 29.1777L7.87206 29.0278L7.57226 28.0738L7.27246 27.1198L6.79546 27.2697L7.09526 28.2237ZM7.57226 28.0738L7.87326 29.0274L13.5237 27.2439L13.2227 26.2903L12.9217 25.3367L7.27126 27.1202L7.57226 28.0738ZM13.2227 26.2903L13.5225 27.2443L13.9994 27.0944L13.6996 26.1404L13.3997 25.1864L12.9228 25.3363L13.2227 26.2903ZM13.6996 26.1404L12.7462 26.4422L12.8972 26.9191L13.8506 26.6173L14.8039 26.3154L14.6529 25.8385L13.6996 26.1404ZM8.09866 31.9304L7.14498 32.2312L14.0774 54.2083L15.0311 53.9075L15.9847 53.6067L9.05234 31.6296L8.09866 31.9304ZM15.0311 53.9075L14.0777 54.2092L14.2286 54.6861L15.182 54.3844L16.1354 54.0827L15.9845 53.6058L15.0311 53.9075ZM15.182 54.3844L14.8819 53.4305L14.405 53.5805L14.7051 54.5344L15.0051 55.4883L15.482 55.3383L15.182 54.3844ZM14.7051 54.5344L14.4041 53.5808L8.75367 55.3642L9.05466 56.3178L9.35565 57.2714L15.006 55.488L14.7051 54.5344ZM9.05466 56.3178L8.75468 55.3638L8.27768 55.5138L8.57766 56.4678L8.87764 57.4217L9.35464 57.2717L9.05466 56.3178ZM8.57766 56.4678L9.53109 56.1662L9.38019 55.6892L8.42676 55.9908L7.47333 56.2924L7.62423 56.7694L8.57766 56.4678ZM8.42676 55.9908L9.38044 55.6899L2.44802 33.7138L1.49434 34.0147L0.540666 34.3155L7.47309 56.2916L8.42676 55.9908ZM1.49434 34.0147L2.44773 33.713L2.2968 33.2361L1.34341 33.5378L0.390017 33.8395L0.540947 34.3164L1.49434 34.0147ZM1.34341 33.5378L1.64507 34.4912L2.122 34.3403L1.82034 33.3869L1.51868 32.4335L1.04175 32.5844L1.34341 33.5378ZM1.82034 33.3869L2.12119 34.3406L7.77161 32.5581L7.47076 31.6044L7.16991 30.6507L1.51949 32.4332L1.82034 33.3869ZM7.47076 31.6044L7.77244 32.5578L8.24934 32.4069L7.94766 31.4535L7.64598 30.5001L7.16908 30.651L7.47076 31.6044ZM7.94766 31.4535L6.99431 31.7553L7.14531 32.2322L8.09866 31.9304L9.05201 31.6285L8.90101 31.1516L7.94766 31.4535ZM3.92952 42.9257L2.97582 43.2265L4.35406 47.5967L5.30776 47.2959L6.26146 46.9951L4.88322 42.6249L3.92952 42.9257ZM5.30776 47.2959L4.35378 47.5957L4.50368 48.0726L5.45766 47.7728L6.41164 47.4729L6.26174 46.996L5.30776 47.2959ZM5.45766 47.7728L5.15706 46.819L4.68114 46.969L4.98174 47.9228L5.28234 48.8765L5.75827 48.7265L5.45766 47.7728ZM4.98174 47.9228L4.68095 46.9691L1.85526 47.8603L2.15604 48.814L2.45683 49.7677L5.28253 48.8765L4.98174 47.9228ZM2.15604 48.814L1.85438 47.8606L1.37745 48.0115L1.67911 48.9649L1.98077 49.9183L2.4577 49.7674L2.15604 48.814ZM1.67911 48.9649L2.63251 48.6632L2.48159 48.1863L1.52819 48.488L0.574791 48.7897L0.725711 49.2666L1.67911 48.9649ZM1.52819 48.488L2.48188 48.1872L1.10364 43.8171L0.14995 44.1179L-0.803745 44.4187L0.574495 48.7888L1.52819 48.488ZM0.14995 44.1179L1.10392 43.818L0.953973 43.341L0 43.6409L-0.953973 43.9408L-0.804023 44.4178L0.14995 44.1179ZM0 43.6409L0.301656 44.5943L0.778586 44.4434L0.47693 43.49L0.175274 42.5366L-0.301656 42.6875L0 43.6409ZM0.47693 43.49L0.777842 44.4436L3.60256 43.5523L3.30165 42.5987L3.00074 41.645L0.176019 42.5363L0.47693 43.49ZM3.30165 42.5987L3.60148 43.5527L4.07843 43.4028L3.7786 42.4488L3.47877 41.4948L3.00182 41.6447L3.30165 42.5987ZM3.7786 42.4488L2.8252 42.7505L2.97612 43.2274L3.92952 42.9257L4.88292 42.624L4.732 42.1471L3.7786 42.4488ZM93.6538 14.5323L92.7042 14.8459L94.1416 19.1974L95.0912 18.8838L96.0407 18.5701L94.6033 14.2186L93.6538 14.5323ZM95.0912 18.8838L94.1418 19.198L94.2996 19.6748L95.249 19.3606L96.1983 19.0464L96.0405 18.5696L95.0912 18.8838ZM95.249 19.3606L94.9389 18.4099L94.4612 18.5657L94.7712 19.5164L95.0812 20.4671L95.559 20.3113L95.249 19.3606ZM94.7712 19.5164L94.4611 18.5657L20.185 42.7886L20.4951 43.7393L20.8051 44.69L95.0812 20.4671L94.7712 19.5164ZM20.4951 43.7393L20.1864 42.7881L19.7125 42.9419L20.0212 43.8931L20.3299 44.8442L20.8038 44.6904L20.4951 43.7393ZM20.0212 43.8931L20.971 43.5802L20.8152 43.1072L19.8654 43.4201L18.9156 43.7329L19.0714 44.2059L20.0212 43.8931ZM19.8654 43.4201L20.8149 43.1064L19.3774 38.7549L18.4279 39.0686L17.4783 39.3823L18.9158 43.7338L19.8654 43.4201ZM18.4279 39.0686L19.3773 38.7546L19.2196 38.2778L18.2702 38.5918L17.3207 38.9058L17.4784 39.3826L18.4279 39.0686ZM18.2702 38.5918L18.5786 39.543L19.0564 39.3881L18.748 38.4369L18.4396 37.4856L17.9618 37.6405L18.2702 38.5918ZM18.748 38.4369L19.058 39.3876L93.3341 15.1648L93.0241 14.2141L92.714 13.2634L18.4379 37.4862L18.748 38.4369ZM93.0241 14.2141L93.3346 15.1647L93.8085 15.0099L93.498 14.0593L93.1875 13.1087L92.7136 13.2635L93.0241 14.2141ZM93.498 14.0593L92.5482 14.3721L92.704 14.8451L93.6538 14.5323L94.6036 14.2194L94.4478 13.7464L93.498 14.0593ZM96.9864 0.474874L96.0368 0.78852L105.358 29.0071L106.307 28.6935L107.257 28.3798L97.9359 0.161228L96.9864 0.474874ZM106.307 28.6935L105.357 29.0056L105.513 29.4804L106.463 29.1683L107.413 28.8561L107.257 28.3813L106.307 28.6935ZM106.463 29.1683L106.149 28.2189L105.675 28.3757L105.989 29.3251L106.303 30.2745L106.777 30.1177L106.463 29.1683ZM105.989 29.3251L105.676 28.3755L100.05 30.2337L100.363 31.1833L100.677 32.1328L106.303 30.2746L105.989 29.3251ZM100.363 31.1833L100.05 30.2337L99.5749 30.3905L99.8884 31.3401L100.202 32.2897L100.677 32.1329L100.363 31.1833ZM99.8884 31.3401L100.838 31.0262L100.681 30.5513L99.7314 30.8652L98.7819 31.1791L98.9389 31.654L99.8884 31.3401ZM99.7314 30.8652L100.681 30.5515L91.3602 2.33394L90.4107 2.64758L89.4611 2.96123L98.7818 31.1788L99.7314 30.8652ZM90.4107 2.64758L91.3602 2.33405L91.2034 1.85917L90.2539 2.1727L89.3043 2.48624L89.4611 2.96112L90.4107 2.64758ZM90.2539 2.1727L90.5679 3.12213L91.0418 2.9654L90.7278 2.01597L90.4138 1.06655L89.9399 1.22328L90.2539 2.1727ZM90.7278 2.01597L91.0415 2.96548L96.6681 1.10625L96.3544 0.156749L96.0406 -0.792757L90.414 1.06647L90.7278 2.01597ZM96.3544 0.156749L96.6677 1.10638L97.1427 0.949629L96.8294 0L96.516 -0.949629L96.041 -0.79288L96.3544 0.156749ZM96.8294 0L95.8799 0.313899L96.0369 0.788773L96.9864 0.474874L97.9358 0.160975L97.7788 -0.313899L96.8294 0ZM37.4248 2.80182L37.4422 3.80167C39.6451 3.76326 41.6658 4.30226 43.4876 5.16647L43.9162 4.26297L44.3448 3.35948C42.2935 2.38641 39.9685 1.75731 37.4073 1.80198L37.4248 2.80182ZM43.9162 4.26297L43.4773 5.16152L43.8615 5.34918L44.3004 4.45063L44.7392 3.55209L44.355 3.36443L43.9162 4.26297ZM44.3004 4.45063L43.8481 5.3425L43.917 5.37744L44.3693 4.48557L44.8216 3.5937L44.7527 3.55876L44.3004 4.45063ZM44.3693 4.48557L43.677 5.2072L43.68 5.21008L44.3723 4.48845L45.0645 3.76683L45.0615 3.76395L44.3693 4.48557ZM44.3723 4.48845L43.9173 5.37894C48.8404 7.89447 52.1633 12.7122 53.3074 14.5684L54.1587 14.0437L55.01 13.519C53.822 11.5916 50.2597 6.37375 44.8273 3.59797L44.3723 4.48845ZM54.1587 14.0437L55.0274 14.539C55.1343 14.3514 55.2631 14.132 55.4125 13.8862L54.5581 13.3667L53.7036 12.8471C53.5447 13.1086 53.4064 13.3441 53.29 13.5484L54.1587 14.0437ZM54.5581 13.3667L55.4123 13.8866C55.9364 13.0254 56.7152 11.8486 57.7312 10.5903L56.9532 9.96208L56.1751 9.33386C55.092 10.6753 54.2632 11.9277 53.7038 12.8468L54.5581 13.3667ZM56.9532 9.96208L57.7312 10.5903C59.7704 8.0648 62.7313 5.25283 66.4731 3.95644L66.1458 3.01154L65.8184 2.06665C61.5687 3.53899 58.3202 6.67725 56.1751 9.33387L56.9532 9.96208ZM66.1458 3.01154L66.4738 3.95621C66.771 3.853 67.0748 3.76033 67.3847 3.67666L67.1241 2.71122L66.8634 1.74579C66.5123 1.84057 66.1633 1.94687 65.8177 2.06688L66.1458 3.01154ZM67.1241 2.71122L67.3398 3.68769L67.3446 3.68663L67.1289 2.71016L66.9132 1.7337L66.9084 1.73476L67.1241 2.71122ZM67.1289 2.71016L67.3794 3.67828C67.3968 3.67377 67.4123 3.66943 67.4197 3.66737C67.4292 3.66471 67.4312 3.66415 67.4335 3.66355L67.1746 2.69764L66.9156 1.73174C66.901 1.73567 66.8873 1.73952 66.8818 1.74106C66.8741 1.7432 66.8752 1.74285 66.8784 1.74205L67.1289 2.71016ZM67.1746 2.69764L67.4334 3.66358C67.4477 3.65972 67.4445 3.66079 67.4795 3.65165L67.2271 2.68403L66.9746 1.71642C66.9729 1.71688 66.9332 1.72704 66.9158 1.73171L67.1746 2.69764ZM67.2271 2.68403L67.4644 3.65546L67.9079 3.54711L67.6706 2.57568L67.4332 1.60425L66.9897 1.7126L67.2271 2.68403ZM67.6706 2.57568L67.8913 3.55101C68.0295 3.51973 68.1679 3.49063 68.3068 3.46383L68.1173 2.48194L67.9278 1.50006C67.767 1.53108 67.6078 1.56459 67.4498 1.60035L67.6706 2.57568ZM68.1173 2.48194L68.313 3.46261L68.5115 3.423L68.3158 2.44233L68.1201 1.46167L67.9216 1.50128L68.1173 2.48194ZM68.3158 2.44233L68.4911 3.42684C68.7449 3.38163 69.0066 3.34555 69.2746 3.31451L69.1596 2.32114L69.0445 1.32778C68.7496 1.36194 68.4456 1.40346 68.1404 1.45783L68.3158 2.44233ZM69.1596 2.32114L69.629 3.20412L69.6309 3.20311L69.1615 2.32013L68.692 1.43716L68.6901 1.43817L69.1596 2.32114ZM69.1615 2.32013L69.2728 3.31392C69.3173 3.30894 69.3597 3.30332 69.4022 3.29759L69.2687 2.30654L69.1351 1.3155C69.0937 1.32109 69.0705 1.32407 69.0501 1.32635L69.1615 2.32013ZM69.2687 2.30654L69.402 3.29762C69.435 3.29318 69.4687 3.28901 69.5013 3.28586L69.4052 2.29049L69.309 1.29513C69.242 1.3016 69.1811 1.30931 69.1353 1.31547L69.2687 2.30654ZM69.4052 2.29049L69.5022 3.28578C69.835 3.25334 70.1703 3.23139 70.5095 3.22546L70.4921 2.22561L70.4746 1.22577C70.0724 1.2328 69.6831 1.25867 69.3082 1.29521L69.4052 2.29049ZM70.4921 2.22561L70.5095 3.22546C76.678 3.11778 82.1326 6.7297 85.0221 11.943L85.8968 11.4582L86.7714 10.9734C83.5693 5.19633 77.4729 1.1036 70.4746 1.22577L70.4921 2.22561ZM85.8968 11.4582L85.0218 11.9424L85.3152 12.4725L86.1902 11.9883L87.0651 11.504L86.7717 10.9739L85.8968 11.4582ZM86.1902 11.9883L85.8801 11.0376L85.3042 11.2254L85.6143 12.1761L85.9243 13.1268L86.5002 12.939L86.1902 11.9883ZM85.6143 12.1761L85.3042 11.2254L23.9352 31.239L24.2453 32.1897L24.5553 33.1404L85.9243 13.1268L85.6143 12.1761ZM24.2453 32.1897L23.9356 31.2388L23.5364 31.3688L23.8461 32.3197L24.1557 33.2705L24.5549 33.1405L24.2453 32.1897ZM23.8461 32.3197L24.7287 31.8496L24.5318 31.4799L23.6492 31.95L22.7665 32.4201L22.9634 32.7898L23.8461 32.3197ZM23.6492 31.95L24.5316 31.4796C23.7588 30.0298 23.1125 28.5907 22.6309 27.1801L21.6846 27.5032L20.7382 27.8263C21.2612 29.3584 21.9545 30.8967 22.7667 32.4204L23.6492 31.95ZM21.6846 27.5032V26.5032H21.6836V27.5032V28.5032H21.6846V27.5032ZM21.6836 27.5032L22.6072 27.12C21.8386 25.2674 21.3866 23.2484 21.3495 21.1252L20.3497 21.1427L19.3498 21.1602C19.3915 23.5475 19.9001 25.814 20.7599 27.8864L21.6836 27.5032ZM20.3497 21.1427L21.3495 21.1252C21.1909 12.0365 28.4124 3.95929 37.4422 3.80167L37.4248 2.80182L37.4073 1.80198C27.177 1.98055 19.1736 11.0656 19.3498 21.1601L20.3497 21.1427ZM104.759 1.42138L103.81 1.73503L111.038 23.6171L111.987 23.3035L112.937 22.9898L105.709 1.10774L104.759 1.42138ZM111.987 23.3035L111.038 23.6174L111.195 24.0923L112.144 23.7784L113.094 23.4645L112.937 22.9896L111.987 23.3035ZM112.144 23.7784L111.831 22.8287L111.356 22.9854L111.669 23.9351L111.983 24.8847L112.458 24.728L112.144 23.7784ZM111.669 23.9351L111.356 22.9855L105.73 24.8437L106.043 25.7933L106.357 26.7428L111.983 24.8846L111.669 23.9351ZM106.043 25.7933L105.73 24.8437L105.255 25.0005L105.568 25.9501L105.882 26.8997L106.357 26.7429L106.043 25.7933ZM105.568 25.9501L106.518 25.638L106.362 25.1631L105.412 25.4752L104.462 25.7873L104.618 26.2622L105.568 25.9501ZM105.412 25.4752L106.362 25.1615L99.1339 3.28042L98.1844 3.59408L97.2348 3.90774L104.463 25.7888L105.412 25.4752ZM98.1844 3.59408L99.1338 3.28018L98.9768 2.80531L98.0274 3.11921L97.0779 3.43312L97.2349 3.90799L98.1844 3.59408ZM98.0274 3.11921L98.3407 4.06884L98.8157 3.91209L98.5024 2.96246L98.189 2.01284L97.714 2.16959L98.0274 3.11921ZM98.5024 2.96246L98.816 3.91201L104.442 2.05378L104.128 1.10423L103.815 0.154688L98.1887 2.01292L98.5024 2.96246ZM104.128 1.10423L104.442 2.05386L104.917 1.89711L104.603 0.947484L104.29 -0.00214585L103.815 0.154604L104.128 1.10423ZM104.603 0.947484L103.654 1.26016L103.81 1.73406L104.759 1.42138L105.709 1.10871L105.553 0.634809L104.603 0.947484ZM111.758 8.83064L110.809 9.14422L112.246 13.4958L113.195 13.1822L114.145 12.8686L112.708 8.51707L111.758 8.83064ZM113.195 13.1822L112.246 13.4961L112.403 13.971L113.352 13.6571L114.302 13.3432L114.145 12.8683L113.195 13.1822ZM113.352 13.6571L113.039 12.7074L112.564 12.8641L112.877 13.8138L113.191 14.7634L113.666 14.6067L113.352 13.6571ZM112.877 13.8138L112.564 12.8642L109.751 13.7934L110.064 14.743L110.378 15.6925L113.191 14.7633L112.877 13.8138ZM110.064 14.743L109.751 13.7933L109.276 13.95L109.589 14.8997L109.903 15.8493L110.378 15.6926L110.064 14.743ZM109.589 14.8997L110.539 14.5858L110.382 14.1109L109.432 14.4248L108.483 14.7387L108.64 15.2136L109.589 14.8997ZM109.432 14.4248L110.382 14.1111L108.945 9.76064L107.995 10.0743L107.046 10.3879L108.483 14.7384L109.432 14.4248ZM107.995 10.0743L108.945 9.7604L108.788 9.2855L107.838 9.59938L106.889 9.91327L107.046 10.3882L107.995 10.0743ZM107.838 9.59938L108.152 10.549L108.627 10.3922L108.313 9.44258L108 8.49299L107.525 8.64979L107.838 9.59938ZM108.313 9.44258L108.627 10.392L111.44 9.46196L111.126 8.51251L110.812 7.56306L107.999 8.49313L108.313 9.44258ZM111.126 8.51251L111.44 9.46214L111.915 9.30539L111.601 8.35576L111.288 7.40614L110.813 7.56289L111.126 8.51251ZM111.601 8.35576L110.652 8.66967L110.809 9.14455L111.758 8.83064L112.708 8.51674L112.551 8.04186L111.601 8.35576Z" fill="white" mask="url(#path-1-inside-1_1_4)"/>
</svg>
